<?xml version="1.0" encoding="UTF-8"?>
<!DOCTYPE svg PUBLIC "-//W3C//DTD SVG 1.1//EN" "http://www.w3.org/Graphics/SVG/1.1/DTD/svg11.dtd">
<svg version="1.2" width="111.67mm" height="111.67mm" viewBox="4647 920 11167 11167" preserveAspectRatio="xMidYMid" fill-rule="evenodd" stroke-width="28.222" stroke-linejoin="round" xmlns="http://www.w3.org/2000/svg" xmlns:ooo="http://xml.openoffice.org/svg/export" xmlns:xlink="http://www.w3.org/1999/xlink" xmlns:presentation="http://sun.com/xmlns/staroffice/presentation" xmlns:smil="http://www.w3.org/2001/SMIL20/" xmlns:anim="urn:oasis:names:tc:opendocument:xmlns:animation:1.0" xmlns:svg="urn:oasis:names:tc:opendocument:xmlns:svg-compatible:1.0" xml:space="preserve">
 <defs class="EmbeddedBulletChars">
  <g id="bullet-char-template-57356" transform="scale(0.00048828125,-0.00048828125)">
   <path d="M 580,1141 L 1163,571 580,0 -4,571 580,1141 Z"/>
  </g>
  <g id="bullet-char-template-57354" transform="scale(0.00048828125,-0.00048828125)">
   <path d="M 8,1128 L 1137,1128 1137,0 8,0 8,1128 Z"/>
  </g>
  <g id="bullet-char-template-10146" transform="scale(0.00048828125,-0.00048828125)">
   <path d="M 174,0 L 602,739 174,1481 1456,739 174,0 Z M 1358,739 L 309,1346 659,739 1358,739 Z"/>
  </g>
  <g id="bullet-char-template-10132" transform="scale(0.00048828125,-0.00048828125)">
   <path d="M 2015,739 L 1276,0 717,0 1260,543 174,543 174,936 1260,936 717,1481 1274,1481 2015,739 Z"/>
  </g>
  <g id="bullet-char-template-10007" transform="scale(0.00048828125,-0.00048828125)">
   <path d="M 0,-2 C -7,14 -16,27 -25,37 L 356,567 C 262,823 215,952 215,954 215,979 228,992 255,992 264,992 276,990 289,987 310,991 331,999 354,1012 L 381,999 492,748 772,1049 836,1024 860,1049 C 881,1039 901,1025 922,1006 886,937 835,863 770,784 769,783 710,716 594,584 L 774,223 C 774,196 753,168 711,139 L 727,119 C 717,90 699,76 672,76 641,76 570,178 457,381 L 164,-76 C 142,-110 111,-127 72,-127 30,-127 9,-110 8,-76 1,-67 -2,-52 -2,-32 -2,-23 -1,-13 0,-2 Z"/>
  </g>
  <g id="bullet-char-template-10004" transform="scale(0.00048828125,-0.00048828125)">
   <path d="M 285,-33 C 182,-33 111,30 74,156 52,228 41,333 41,471 41,549 55,616 82,672 116,743 169,778 240,778 293,778 328,747 346,684 L 369,508 C 377,444 397,411 428,410 L 1163,1116 C 1174,1127 1196,1133 1229,1133 1271,1133 1292,1118 1292,1087 L 1292,965 C 1292,929 1282,901 1262,881 L 442,47 C 390,-6 338,-33 285,-33 Z"/>
  </g>
  <g id="bullet-char-template-9679" transform="scale(0.00048828125,-0.00048828125)">
   <path d="M 813,0 C 632,0 489,54 383,161 276,268 223,411 223,592 223,773 276,916 383,1023 489,1130 632,1184 813,1184 992,1184 1136,1130 1245,1023 1353,916 1407,772 1407,592 1407,412 1353,268 1245,161 1136,54 992,0 813,0 Z"/>
  </g>
  <g id="bullet-char-template-8226" transform="scale(0.00048828125,-0.00048828125)">
   <path d="M 346,457 C 273,457 209,483 155,535 101,586 74,649 74,723 74,796 101,859 155,911 209,963 273,989 346,989 419,989 480,963 531,910 582,859 608,796 608,723 608,648 583,586 532,535 482,483 420,457 346,457 Z"/>
  </g>
  <g id="bullet-char-template-8211" transform="scale(0.00048828125,-0.00048828125)">
   <path d="M -4,459 L 1135,459 1135,606 -4,606 -4,459 Z"/>
  </g>
  <g id="bullet-char-template-61548" transform="scale(0.00048828125,-0.00048828125)">
   <path d="M 173,740 C 173,903 231,1043 346,1159 462,1274 601,1332 765,1332 928,1332 1067,1274 1183,1159 1299,1043 1357,903 1357,740 1357,577 1299,437 1183,322 1067,206 928,148 765,148 601,148 462,206 346,322 231,437 173,577 173,740 Z"/>
  </g>
 </defs>
 <g class="Page">
  <g class="com.sun.star.drawing.CustomShape">
   <g id="id3">
    <rect class="BoundingBox" stroke="none" fill="none" x="4647" y="920" width="11167" height="11167"/>
    <path fill="none" stroke="rgb(35,15,189)" stroke-width="159" stroke-linejoin="round" d="M 10230,12006 L 4727,12006 4727,1000 15733,1000 15733,12006 10230,12006 Z"/>
   </g>
  </g>
  <g class="Group">
   <g class="com.sun.star.drawing.ClosedBezierShape">
    <g id="id4">
     <rect class="BoundingBox" stroke="none" fill="none" x="7238" y="9302" width="227" height="393"/>
     <path fill="rgb(35,15,189)" stroke="none" d="M 7321,9374 C 7321,9403 7321,9431 7321,9460 7363,9460 7406,9460 7448,9460 7448,9484 7448,9507 7448,9531 7406,9531 7363,9531 7321,9531 7321,9561 7321,9592 7321,9622 7369,9622 7416,9622 7464,9622 7464,9646 7464,9669 7464,9693 7389,9693 7314,9693 7239,9693 7239,9563 7239,9433 7239,9303 7314,9303 7389,9303 7464,9303 7464,9327 7464,9350 7464,9374 7416,9374 7369,9374 7321,9374 Z"/>
    </g>
   </g>
   <g class="com.sun.star.drawing.ClosedBezierShape">
    <g id="id5">
     <rect class="BoundingBox" stroke="none" fill="none" x="7491" y="9302" width="366" height="393"/>
     <path fill="rgb(35,15,189)" stroke="none" d="M 7743,9618 C 7696,9618 7650,9618 7604,9618 7595,9643 7587,9668 7578,9693 7549,9693 7520,9693 7491,9693 7538,9563 7584,9433 7631,9303 7659,9303 7688,9303 7716,9303 7763,9433 7809,9563 7856,9693 7827,9693 7798,9693 7769,9693 7760,9668 7751,9643 7743,9618 Z M 7718,9547 C 7703,9505 7688,9462 7674,9420 7659,9462 7644,9505 7629,9547 7659,9547 7688,9547 7718,9547 Z"/>
    </g>
   </g>
   <g class="com.sun.star.drawing.ClosedBezierShape">
    <g id="id6">
     <rect class="BoundingBox" stroke="none" fill="none" x="8025" y="9303" width="209" height="391"/>
     <path fill="rgb(35,15,189)" stroke="none" d="M 8108,9622 C 8149,9622 8191,9622 8232,9622 8232,9646 8232,9669 8232,9693 8163,9693 8095,9693 8026,9693 8026,9563 8026,9433 8026,9303 8053,9303 8081,9303 8108,9303 8108,9410 8108,9516 8108,9622 Z"/>
    </g>
   </g>
   <g class="com.sun.star.drawing.ClosedBezierShape">
    <g id="id7">
     <rect class="BoundingBox" stroke="none" fill="none" x="8242" y="9375" width="311" height="325"/>
     <path fill="rgb(35,15,189)" stroke="none" d="M 8552,9529 C 8552,9541 8551,9554 8548,9570 L 8328,9570 C 8329,9582 8336,9595 8349,9607 8363,9619 8379,9625 8399,9625 8427,9625 8448,9612 8461,9584 L 8548,9584 C 8535,9623 8517,9652 8492,9670 8467,9689 8436,9698 8399,9698 8369,9698 8342,9691 8319,9678 8295,9664 8276,9645 8263,9621 8249,9596 8243,9568 8243,9536 8243,9505 8249,9476 8262,9452 8275,9427 8294,9409 8318,9395 8341,9382 8369,9375 8399,9375 8428,9375 8455,9382 8478,9395 8501,9408 8519,9426 8532,9449 8545,9473 8552,9499 8552,9529 Z M 8467,9499 C 8467,9488 8460,9477 8447,9465 8433,9454 8417,9448 8396,9448 8378,9448 8363,9454 8350,9465 8338,9476 8330,9488 8329,9499 L 8467,9499 Z"/>
    </g>
   </g>
   <g class="com.sun.star.drawing.ClosedBezierShape">
    <g id="id8">
     <rect class="BoundingBox" stroke="none" fill="none" x="8568" y="9374" width="324" height="465"/>
     <path fill="rgb(35,15,189)" stroke="none" d="M 8717,9375 C 8741,9375 8763,9380 8782,9390 8801,9399 8810,9406 8810,9408 L 8807,9380 8890,9380 8890,9687 C 8890,9716 8884,9741 8872,9764 8859,9787 8842,9805 8819,9818 8796,9830 8768,9837 8737,9837 8695,9837 8660,9827 8631,9807 8603,9787 8586,9755 8582,9712 L 8662,9712 C 8667,9730 8676,9743 8689,9751 8702,9759 8718,9763 8737,9763 8758,9763 8775,9756 8788,9744 8801,9731 8807,9712 8807,9687 L 8810,9664 C 8810,9666 8801,9673 8782,9683 8763,9693 8741,9698 8717,9698 8690,9698 8665,9691 8642,9677 8619,9663 8601,9644 8588,9619 8575,9594 8569,9566 8569,9535 8569,9504 8575,9476 8588,9452 8601,9428 8619,9409 8642,9395 8665,9382 8690,9375 8717,9375 Z M 8807,9536 C 8807,9518 8803,9502 8796,9489 8789,9476 8779,9466 8768,9459 8756,9453 8743,9449 8730,9449 8716,9449 8704,9453 8692,9459 8680,9466 8671,9476 8663,9489 8656,9501 8653,9517 8653,9535 8653,9553 8656,9569 8664,9583 8671,9596 8680,9606 8692,9613 8704,9620 8717,9624 8730,9624 8743,9624 8756,9620 8768,9614 8779,9607 8789,9597 8796,9583 8803,9570 8807,9554 8807,9536 Z"/>
    </g>
   </g>
   <g class="com.sun.star.drawing.ClosedBezierShape">
    <g id="id9">
     <rect class="BoundingBox" stroke="none" fill="none" x="8928" y="9374" width="324" height="325"/>
     <path fill="rgb(35,15,189)" stroke="none" d="M 8929,9535 C 8929,9504 8935,9476 8948,9452 8961,9428 8979,9409 9002,9395 9025,9382 9050,9375 9077,9375 9102,9375 9124,9380 9142,9390 9161,9399 9170,9405 9170,9408 L 9167,9380 9250,9380 9250,9693 9167,9693 9170,9665 C 9170,9667 9161,9673 9141,9683 9122,9693 9100,9698 9076,9698 9049,9698 9024,9691 9002,9677 8979,9663 8961,9644 8948,9619 8935,9594 8929,9566 8929,9535 Z M 9167,9536 C 9167,9518 9163,9502 9156,9489 9149,9476 9139,9466 9128,9459 9116,9453 9103,9449 9090,9449 9076,9449 9064,9453 9052,9459 9040,9466 9031,9476 9023,9489 9016,9501 9013,9517 9013,9535 9013,9553 9016,9569 9024,9583 9031,9596 9040,9606 9052,9613 9064,9620 9077,9624 9090,9624 9103,9624 9116,9620 9128,9614 9139,9607 9149,9597 9156,9583 9163,9570 9167,9554 9167,9536 Z"/>
    </g>
   </g>
   <g class="com.sun.star.drawing.ClosedBezierShape">
    <g id="id10">
     <rect class="BoundingBox" stroke="none" fill="none" x="9308" y="9279" width="85" height="415"/>
     <path fill="rgb(35,15,189)" stroke="none" d="M 9391,9280 C 9391,9418 9391,9555 9391,9693 9364,9693 9336,9693 9309,9693 9309,9555 9309,9418 9309,9280 9336,9280 9364,9280 9391,9280 Z"/>
    </g>
   </g>
   <g class="com.sun.star.drawing.ClosedBezierShape">
    <g id="id11">
     <rect class="BoundingBox" stroke="none" fill="none" x="9567" y="9294" width="424" height="407"/>
     <path fill="rgb(35,15,189)" stroke="none" d="M 9879,9693 L 9838,9652 C 9825,9666 9807,9677 9785,9686 9763,9695 9738,9700 9711,9700 9683,9700 9658,9695 9637,9685 9615,9675 9598,9661 9586,9642 9574,9623 9568,9601 9568,9576 9568,9549 9575,9524 9591,9502 9607,9480 9625,9465 9647,9456 9642,9451 9637,9442 9633,9430 9628,9418 9626,9405 9626,9391 9626,9372 9630,9356 9640,9341 9649,9327 9663,9315 9680,9307 9697,9299 9717,9295 9739,9295 9761,9295 9781,9299 9797,9308 9814,9317 9826,9330 9835,9345 9843,9361 9846,9382 9844,9407 L 9762,9407 C 9762,9390 9760,9379 9756,9374 9751,9369 9745,9366 9736,9366 9727,9366 9721,9369 9716,9373 9711,9378 9708,9384 9708,9391 9708,9398 9710,9406 9715,9414 9720,9422 9729,9433 9742,9448 L 9829,9534 9863,9479 9953,9479 9896,9577 9887,9592 9989,9693 9879,9693 Z M 9711,9627 C 9741,9627 9765,9617 9783,9597 L 9699,9512 C 9666,9525 9650,9546 9650,9574 9650,9589 9655,9601 9667,9612 9678,9622 9692,9627 9711,9627 Z"/>
    </g>
   </g>
   <g class="com.sun.star.drawing.ClosedBezierShape">
    <g id="id12">
     <rect class="BoundingBox" stroke="none" fill="none" x="10109" y="9298" width="388" height="399"/>
     <path fill="rgb(35,15,189)" stroke="none" d="M 10110,9498 C 10110,9460 10118,9426 10136,9395 10154,9365 10178,9341 10209,9324 10239,9307 10272,9299 10308,9299 10350,9299 10387,9309 10419,9330 10451,9350 10477,9384 10495,9431 L 10400,9431 C 10389,9410 10377,9395 10361,9387 10346,9378 10329,9374 10308,9374 10286,9374 10266,9379 10249,9389 10232,9399 10218,9413 10208,9432 10198,9450 10194,9472 10194,9498 10194,9523 10198,9545 10208,9563 10218,9582 10232,9597 10249,9607 10266,9617 10286,9622 10308,9622 10329,9622 10346,9617 10361,9609 10377,9600 10389,9586 10400,9564 L 10495,9564 C 10477,9612 10451,9645 10419,9666 10386,9686 10350,9696 10308,9696 10272,9696 10239,9688 10208,9671 10178,9654 10154,9630 10136,9600 10118,9569 10110,9535 10110,9498 Z"/>
    </g>
   </g>
   <g class="com.sun.star.drawing.ClosedBezierShape">
    <g id="id13">
     <rect class="BoundingBox" stroke="none" fill="none" x="10521" y="9374" width="321" height="325"/>
     <path fill="rgb(35,15,189)" stroke="none" d="M 10678,9698 C 10649,9698 10622,9691 10598,9678 10574,9664 10555,9645 10542,9621 10528,9596 10521,9568 10521,9536 10521,9505 10528,9477 10542,9452 10556,9427 10575,9408 10600,9395 10624,9382 10651,9375 10681,9375 10711,9375 10738,9382 10762,9395 10786,9408 10805,9427 10819,9452 10833,9477 10840,9505 10840,9536 10840,9568 10833,9596 10819,9621 10804,9645 10785,9664 10760,9678 10735,9691 10708,9698 10678,9698 Z M 10678,9624 C 10692,9624 10705,9620 10716,9614 10728,9608 10738,9598 10745,9585 10753,9572 10757,9555 10757,9536 10757,9517 10753,9501 10746,9488 10739,9475 10729,9465 10718,9459 10706,9453 10693,9449 10680,9449 10666,9449 10654,9453 10642,9459 10631,9465 10622,9475 10615,9488 10608,9501 10605,9517 10605,9536 10605,9565 10611,9586 10625,9601 10639,9616 10657,9624 10678,9624 Z"/>
    </g>
   </g>
   <g class="com.sun.star.drawing.ClosedBezierShape">
    <g id="id14">
     <rect class="BoundingBox" stroke="none" fill="none" x="10879" y="9374" width="497" height="320"/>
     <path fill="rgb(35,15,189)" stroke="none" d="M 11244,9375 C 11268,9375 11291,9380 11311,9391 11330,9401 11346,9417 11358,9437 11369,9457 11375,9482 11375,9510 L 11375,9693 11293,9693 11293,9519 C 11293,9496 11287,9479 11276,9467 11265,9455 11250,9449 11231,9449 11211,9449 11196,9455 11185,9467 11174,9479 11168,9496 11168,9519 L 11168,9693 11087,9693 11087,9519 C 11087,9496 11081,9479 11070,9467 11059,9455 11044,9449 11025,9449 11005,9449 10990,9455 10979,9467 10968,9479 10962,9496 10962,9519 L 10962,9693 10880,9693 10880,9380 10962,9380 10959,9401 C 10959,9398 10967,9393 10984,9386 11001,9379 11018,9375 11037,9375 11062,9375 11085,9380 11105,9391 11125,9402 11137,9411 11142,9420 11145,9413 11157,9403 11178,9392 11198,9381 11220,9375 11244,9375 Z"/>
    </g>
   </g>
   <g class="com.sun.star.drawing.ClosedBezierShape">
    <g id="id15">
     <rect class="BoundingBox" stroke="none" fill="none" x="11429" y="9374" width="497" height="320"/>
     <path fill="rgb(35,15,189)" stroke="none" d="M 11794,9375 C 11818,9375 11841,9380 11861,9391 11880,9401 11896,9417 11908,9437 11919,9457 11925,9482 11925,9510 L 11925,9693 11843,9693 11843,9519 C 11843,9496 11837,9479 11826,9467 11815,9455 11800,9449 11781,9449 11761,9449 11746,9455 11735,9467 11724,9479 11718,9496 11718,9519 L 11718,9693 11637,9693 11637,9519 C 11637,9496 11631,9479 11620,9467 11609,9455 11594,9449 11575,9449 11555,9449 11540,9455 11529,9467 11518,9479 11512,9496 11512,9519 L 11512,9693 11430,9693 11430,9380 11512,9380 11509,9401 C 11509,9398 11517,9393 11534,9386 11551,9379 11568,9375 11587,9375 11612,9375 11635,9380 11655,9391 11675,9402 11687,9411 11692,9420 11695,9413 11707,9403 11728,9392 11748,9381 11770,9375 11794,9375 Z"/>
    </g>
   </g>
   <g class="com.sun.star.drawing.ClosedBezierShape">
    <g id="id16">
     <rect class="BoundingBox" stroke="none" fill="none" x="11959" y="9375" width="311" height="325"/>
     <path fill="rgb(35,15,189)" stroke="none" d="M 12269,9529 C 12269,9541 12268,9554 12265,9570 L 12045,9570 C 12046,9582 12053,9595 12066,9607 12080,9619 12096,9625 12116,9625 12144,9625 12165,9612 12178,9584 L 12265,9584 C 12252,9623 12234,9652 12209,9670 12184,9689 12153,9698 12116,9698 12086,9698 12059,9691 12036,9678 12012,9664 11993,9645 11980,9621 11966,9596 11960,9568 11960,9536 11960,9505 11966,9476 11979,9452 11992,9427 12011,9409 12035,9395 12058,9382 12086,9375 12116,9375 12145,9375 12172,9382 12195,9395 12218,9408 12236,9426 12249,9449 12262,9473 12269,9499 12269,9529 Z M 12184,9499 C 12184,9488 12177,9477 12164,9465 12150,9454 12134,9448 12113,9448 12095,9448 12080,9454 12067,9465 12055,9476 12047,9488 12046,9499 L 12184,9499 Z"/>
    </g>
   </g>
   <g class="com.sun.star.drawing.ClosedBezierShape">
    <g id="id17">
     <rect class="BoundingBox" stroke="none" fill="none" x="12305" y="9374" width="172" height="320"/>
     <path fill="rgb(35,15,189)" stroke="none" d="M 12384,9407 C 12383,9404 12390,9398 12407,9389 12423,9380 12446,9375 12475,9375 L 12475,9459 12449,9459 C 12428,9459 12413,9464 12403,9474 12393,9484 12388,9502 12388,9529 L 12388,9693 12306,9693 12306,9380 12388,9380 12384,9407 Z"/>
    </g>
   </g>
   <g class="com.sun.star.drawing.ClosedBezierShape">
    <g id="id18">
     <rect class="BoundingBox" stroke="none" fill="none" x="12489" y="9375" width="305" height="325"/>
     <path fill="rgb(35,15,189)" stroke="none" d="M 12490,9536 C 12490,9505 12496,9476 12509,9452 12522,9428 12541,9409 12564,9395 12587,9382 12614,9375 12643,9375 12681,9375 12712,9384 12738,9403 12763,9421 12781,9451 12792,9494 L 12705,9494 C 12699,9477 12691,9465 12681,9458 12671,9451 12659,9448 12643,9448 12622,9448 12605,9456 12593,9471 12580,9486 12573,9508 12573,9536 12573,9565 12580,9587 12593,9602 12605,9618 12622,9625 12643,9625 12673,9625 12694,9610 12705,9579 L 12792,9579 C 12781,9621 12762,9651 12737,9670 12712,9689 12680,9698 12643,9698 12614,9698 12587,9691 12564,9678 12540,9664 12522,9645 12509,9621 12496,9596 12490,9568 12490,9536 Z"/>
    </g>
   </g>
   <g class="com.sun.star.drawing.ClosedBezierShape">
    <g id="id19">
     <rect class="BoundingBox" stroke="none" fill="none" x="12818" y="9263" width="101" height="431"/>
     <path fill="rgb(35,15,189)" stroke="none" d="M 12868,9363 C 12854,9363 12843,9358 12833,9349 12824,9339 12819,9328 12819,9314 12819,9300 12824,9288 12833,9278 12843,9269 12854,9264 12868,9264 12882,9264 12894,9269 12903,9278 12913,9288 12917,9300 12917,9314 12917,9328 12913,9339 12903,9349 12894,9358 12882,9363 12868,9363 Z M 12909,9380 L 12909,9693 12827,9693 12827,9380 12909,9380 Z"/>
    </g>
   </g>
   <g class="com.sun.star.drawing.ClosedBezierShape">
    <g id="id20">
     <rect class="BoundingBox" stroke="none" fill="none" x="12946" y="9374" width="324" height="325"/>
     <path fill="rgb(35,15,189)" stroke="none" d="M 12947,9535 C 12947,9504 12953,9476 12966,9452 12979,9428 12997,9409 13020,9395 13043,9382 13068,9375 13095,9375 13120,9375 13142,9380 13160,9390 13179,9399 13188,9405 13188,9408 L 13185,9380 13268,9380 13268,9693 13185,9693 13188,9665 C 13188,9667 13179,9673 13159,9683 13140,9693 13118,9698 13094,9698 13067,9698 13042,9691 13020,9677 12997,9663 12979,9644 12966,9619 12953,9594 12947,9566 12947,9535 Z M 13185,9536 C 13185,9518 13181,9502 13174,9489 13167,9476 13157,9466 13146,9459 13134,9453 13121,9449 13108,9449 13094,9449 13082,9453 13070,9459 13058,9466 13049,9476 13041,9489 13034,9501 13031,9517 13031,9535 13031,9553 13034,9569 13042,9583 13049,9596 13058,9606 13070,9613 13082,9620 13095,9624 13108,9624 13121,9624 13134,9620 13146,9614 13157,9607 13167,9597 13174,9583 13181,9570 13185,9554 13185,9536 Z"/>
    </g>
   </g>
   <g class="com.sun.star.drawing.ClosedBezierShape">
    <g id="id21">
     <rect class="BoundingBox" stroke="none" fill="none" x="13326" y="9279" width="85" height="415"/>
     <path fill="rgb(35,15,189)" stroke="none" d="M 13409,9280 C 13409,9418 13409,9555 13409,9693 13382,9693 13354,9693 13327,9693 13327,9555 13327,9418 13327,9280 13354,9280 13382,9280 13409,9280 Z"/>
    </g>
   </g>
  </g>
  <g class="Group">
   <g class="com.sun.star.drawing.CustomShape">
    <g id="id22">
     <rect class="BoundingBox" stroke="none" fill="none" x="7785" y="3287" width="1998" height="986"/>
     <path fill="rgb(247,7,7)" stroke="none" d="M 8784,4272 L 7785,4272 7785,3287 9782,3287 9782,4272 8784,4272 Z"/>
    </g>
   </g>
   <g class="com.sun.star.drawing.CustomShape">
    <g id="id23">
     <rect class="BoundingBox" stroke="none" fill="none" x="9304" y="3287" width="1005" height="985"/>
     <path fill="rgb(247,7,7)" stroke="none" d="M 10308,3779 C 10308,3866 10285,3951 10241,4025 10197,4100 10133,4162 10057,4205 9981,4248 9894,4271 9806,4271 9718,4271 9631,4248 9555,4205 9479,4162 9415,4100 9371,4025 9327,3951 9304,3866 9304,3779 9304,3693 9327,3608 9371,3534 9415,3459 9479,3397 9555,3354 9631,3311 9718,3288 9806,3288 9894,3288 9981,3311 10057,3354 10133,3397 10197,3459 10241,3534 10285,3608 10308,3693 10308,3779 L 10308,3779 Z"/>
    </g>
   </g>
   <g class="com.sun.star.drawing.CustomShape">
    <g id="id24">
     <rect class="BoundingBox" stroke="none" fill="none" x="7288" y="3290" width="1005" height="985"/>
     <path fill="rgb(247,7,7)" stroke="none" d="M 8292,3783 C 8292,3869 8269,3954 8225,4028 8181,4103 8117,4165 8041,4208 7965,4251 7878,4274 7790,4274 7702,4274 7615,4251 7539,4208 7463,4165 7399,4103 7355,4028 7311,3954 7288,3869 7288,3783 7288,3696 7311,3611 7355,3537 7399,3462 7463,3400 7539,3357 7615,3314 7702,3291 7790,3291 7878,3291 7965,3314 8041,3357 8117,3400 8181,3462 8225,3537 8269,3611 8292,3696 8292,3782 L 8292,3783 Z"/>
    </g>
   </g>
   <g class="com.sun.star.drawing.CustomShape">
    <g id="id25">
     <rect class="BoundingBox" stroke="none" fill="none" x="7786" y="7288" width="2029" height="986"/>
     <path fill="rgb(247,7,7)" stroke="none" d="M 8800,8273 L 7786,8273 7786,7288 9814,7288 9814,8273 8800,8273 Z"/>
    </g>
   </g>
   <g class="com.sun.star.drawing.CustomShape">
    <g id="id26">
     <rect class="BoundingBox" stroke="none" fill="none" x="9319" y="7286" width="1005" height="984"/>
     <path fill="rgb(247,7,7)" stroke="none" d="M 10323,7778 C 10323,7864 10300,7949 10256,8023 10212,8098 10148,8160 10072,8203 9996,8246 9909,8269 9821,8269 9733,8269 9646,8246 9570,8203 9494,8160 9430,8098 9386,8023 9342,7949 9319,7864 9319,7778 9319,7691 9342,7606 9386,7532 9430,7457 9494,7395 9570,7352 9646,7309 9733,7286 9821,7286 9909,7286 9996,7309 10072,7352 10148,7395 10212,7457 10256,7532 10300,7606 10323,7691 10323,7777 L 10323,7778 Z"/>
    </g>
   </g>
   <g class="com.sun.star.drawing.CustomShape">
    <g id="id27">
     <rect class="BoundingBox" stroke="none" fill="none" x="7288" y="7291" width="1005" height="985"/>
     <path fill="rgb(247,7,7)" stroke="none" d="M 8292,7784 C 8292,7870 8269,7955 8225,8029 8181,8104 8117,8166 8041,8209 7965,8252 7878,8275 7790,8275 7702,8275 7615,8252 7539,8209 7463,8166 7399,8104 7355,8029 7311,7955 7288,7870 7288,7784 7288,7697 7311,7612 7355,7538 7399,7463 7463,7401 7539,7358 7615,7315 7702,7292 7790,7292 7878,7292 7965,7315 8041,7358 8117,7401 8181,7463 8225,7538 8269,7612 8292,7697 8292,7783 L 8292,7784 Z"/>
    </g>
   </g>
   <g class="com.sun.star.drawing.CustomShape">
    <g id="id28">
     <rect class="BoundingBox" stroke="none" fill="none" x="7785" y="5288" width="1462" height="986"/>
     <path fill="rgb(247,7,7)" stroke="none" d="M 8516,6273 L 7785,6273 7785,5288 9246,5288 9246,6273 8516,6273 Z"/>
    </g>
   </g>
   <g class="com.sun.star.drawing.CustomShape">
    <g id="id29">
     <rect class="BoundingBox" stroke="none" fill="none" x="8780" y="5287" width="1005" height="984"/>
     <path fill="rgb(247,7,7)" stroke="none" d="M 9784,5779 C 9784,5865 9761,5950 9717,6024 9673,6099 9609,6161 9533,6204 9457,6247 9370,6270 9282,6270 9194,6270 9107,6247 9031,6204 8955,6161 8891,6099 8847,6024 8803,5950 8780,5865 8780,5779 8780,5692 8803,5607 8847,5533 8891,5458 8955,5396 9031,5353 9107,5310 9194,5287 9282,5287 9370,5287 9457,5310 9533,5353 9609,5396 9673,5458 9717,5533 9761,5607 9784,5692 9784,5778 L 9784,5779 Z"/>
    </g>
   </g>
   <g class="com.sun.star.drawing.CustomShape">
    <g id="id30">
     <rect class="BoundingBox" stroke="none" fill="none" x="7288" y="5292" width="1005" height="984"/>
     <path fill="rgb(247,7,7)" stroke="none" d="M 8292,5784 C 8292,5870 8269,5955 8225,6029 8181,6104 8117,6166 8041,6209 7965,6252 7878,6275 7790,6275 7702,6275 7615,6252 7539,6209 7463,6166 7399,6104 7355,6029 7311,5955 7288,5870 7288,5784 7288,5697 7311,5612 7355,5538 7399,5463 7463,5401 7539,5358 7615,5315 7702,5292 7790,5292 7878,5292 7965,5315 8041,5358 8117,5401 8181,5463 8225,5538 8269,5612 8292,5697 8292,5783 L 8292,5784 Z"/>
    </g>
   </g>
   <g class="com.sun.star.drawing.CustomShape">
    <g id="id31">
     <rect class="BoundingBox" stroke="none" fill="none" x="12271" y="3287" width="1005" height="985"/>
     <path fill="rgb(247,7,7)" stroke="none" d="M 13275,3779 C 13275,3866 13252,3951 13208,4025 13164,4100 13100,4162 13024,4205 12948,4248 12861,4271 12773,4271 12685,4271 12598,4248 12522,4205 12446,4162 12382,4100 12338,4025 12294,3951 12271,3866 12271,3779 12271,3693 12294,3608 12338,3534 12382,3459 12446,3397 12522,3354 12598,3311 12685,3288 12773,3288 12861,3288 12948,3311 13024,3354 13100,3397 13164,3459 13208,3534 13252,3608 13275,3693 13275,3779 L 13275,3779 Z"/>
    </g>
   </g>
   <g class="com.sun.star.drawing.CustomShape">
    <g id="id32">
     <rect class="BoundingBox" stroke="none" fill="none" x="12271" y="7289" width="1005" height="984"/>
     <path fill="rgb(247,7,7)" stroke="none" d="M 13275,7780 C 13275,7867 13252,7952 13208,8026 13164,8101 13100,8163 13024,8206 12948,8249 12861,8272 12773,8272 12685,8272 12598,8249 12522,8206 12446,8163 12382,8101 12338,8026 12294,7952 12271,7867 12271,7780 12271,7694 12294,7609 12338,7535 12382,7460 12446,7398 12522,7355 12598,7312 12685,7289 12773,7289 12861,7289 12948,7312 13024,7355 13100,7398 13164,7460 13208,7535 13252,7609 13275,7694 13275,7780 L 13275,7780 Z"/>
    </g>
   </g>
   <g class="com.sun.star.drawing.CustomShape">
    <g id="id33">
     <rect class="BoundingBox" stroke="none" fill="none" x="9414" y="3470" width="3767" height="4623"/>
     <path fill="rgb(247,7,7)" stroke="none" d="M 11693,6073 L 10207,8092 9414,7508 12386,3471 13179,4055 11693,6073 Z"/>
    </g>
   </g>
   <g class="com.sun.star.drawing.CustomShape">
    <g id="id34">
     <rect class="BoundingBox" stroke="none" fill="none" x="12267" y="3720" width="1006" height="4104"/>
     <path fill="rgb(247,7,7)" stroke="none" d="M 13272,5772 L 13272,7823 12267,7823 12267,3720 13272,3720 13272,5772 Z"/>
    </g>
   </g>
  </g>
 </g>
</svg>