<?xml version="1.0" encoding="UTF-8"?>
<!DOCTYPE svg PUBLIC "-//W3C//DTD SVG 1.1//EN" "http://www.w3.org/Graphics/SVG/1.1/DTD/svg11.dtd">
<svg version="1.2" width="61.73mm" height="60.51mm" viewBox="7452 15079 6173 6051" preserveAspectRatio="xMidYMid" fill-rule="evenodd" stroke-width="28.222" stroke-linejoin="round" xmlns="http://www.w3.org/2000/svg" xmlns:ooo="http://xml.openoffice.org/svg/export" xmlns:xlink="http://www.w3.org/1999/xlink" xmlns:presentation="http://sun.com/xmlns/staroffice/presentation" xmlns:smil="http://www.w3.org/2001/SMIL20/" xmlns:anim="urn:oasis:names:tc:opendocument:xmlns:animation:1.0" xmlns:svg="urn:oasis:names:tc:opendocument:xmlns:svg-compatible:1.0" xml:space="preserve">
 <defs class="EmbeddedBulletChars">
  <g id="bullet-char-template-57356" transform="scale(0.00048828125,-0.00048828125)">
   <path d="M 580,1141 L 1163,571 580,0 -4,571 580,1141 Z"/>
  </g>
  <g id="bullet-char-template-57354" transform="scale(0.00048828125,-0.00048828125)">
   <path d="M 8,1128 L 1137,1128 1137,0 8,0 8,1128 Z"/>
  </g>
  <g id="bullet-char-template-10146" transform="scale(0.00048828125,-0.00048828125)">
   <path d="M 174,0 L 602,739 174,1481 1456,739 174,0 Z M 1358,739 L 309,1346 659,739 1358,739 Z"/>
  </g>
  <g id="bullet-char-template-10132" transform="scale(0.00048828125,-0.00048828125)">
   <path d="M 2015,739 L 1276,0 717,0 1260,543 174,543 174,936 1260,936 717,1481 1274,1481 2015,739 Z"/>
  </g>
  <g id="bullet-char-template-10007" transform="scale(0.00048828125,-0.00048828125)">
   <path d="M 0,-2 C -7,14 -16,27 -25,37 L 356,567 C 262,823 215,952 215,954 215,979 228,992 255,992 264,992 276,990 289,987 310,991 331,999 354,1012 L 381,999 492,748 772,1049 836,1024 860,1049 C 881,1039 901,1025 922,1006 886,937 835,863 770,784 769,783 710,716 594,584 L 774,223 C 774,196 753,168 711,139 L 727,119 C 717,90 699,76 672,76 641,76 570,178 457,381 L 164,-76 C 142,-110 111,-127 72,-127 30,-127 9,-110 8,-76 1,-67 -2,-52 -2,-32 -2,-23 -1,-13 0,-2 Z"/>
  </g>
  <g id="bullet-char-template-10004" transform="scale(0.00048828125,-0.00048828125)">
   <path d="M 285,-33 C 182,-33 111,30 74,156 52,228 41,333 41,471 41,549 55,616 82,672 116,743 169,778 240,778 293,778 328,747 346,684 L 369,508 C 377,444 397,411 428,410 L 1163,1116 C 1174,1127 1196,1133 1229,1133 1271,1133 1292,1118 1292,1087 L 1292,965 C 1292,929 1282,901 1262,881 L 442,47 C 390,-6 338,-33 285,-33 Z"/>
  </g>
  <g id="bullet-char-template-9679" transform="scale(0.00048828125,-0.00048828125)">
   <path d="M 813,0 C 632,0 489,54 383,161 276,268 223,411 223,592 223,773 276,916 383,1023 489,1130 632,1184 813,1184 992,1184 1136,1130 1245,1023 1353,916 1407,772 1407,592 1407,412 1353,268 1245,161 1136,54 992,0 813,0 Z"/>
  </g>
  <g id="bullet-char-template-8226" transform="scale(0.00048828125,-0.00048828125)">
   <path d="M 346,457 C 273,457 209,483 155,535 101,586 74,649 74,723 74,796 101,859 155,911 209,963 273,989 346,989 419,989 480,963 531,910 582,859 608,796 608,723 608,648 583,586 532,535 482,483 420,457 346,457 Z"/>
  </g>
  <g id="bullet-char-template-8211" transform="scale(0.00048828125,-0.00048828125)">
   <path d="M -4,459 L 1135,459 1135,606 -4,606 -4,459 Z"/>
  </g>
  <g id="bullet-char-template-61548" transform="scale(0.00048828125,-0.00048828125)">
   <path d="M 173,740 C 173,903 231,1043 346,1159 462,1274 601,1332 765,1332 928,1332 1067,1274 1183,1159 1299,1043 1357,903 1357,740 1357,577 1299,437 1183,322 1067,206 928,148 765,148 601,148 462,206 346,322 231,437 173,577 173,740 Z"/>
  </g>
 </defs>
 <g class="Page">
  <g class="Group">
   <g class="com.sun.star.drawing.PolyPolygonShape">
    <g id="id3">
     <rect class="BoundingBox" stroke="none" fill="none" x="7452" y="20594" width="227" height="393"/>
     <path fill="rgb(35,15,189)" stroke="none" d="M 7535,20666 L 7535,20752 7662,20752 7662,20823 7535,20823 7535,20914 7678,20914 7678,20985 7453,20985 7453,20595 7678,20595 7678,20666 7535,20666 Z"/>
    </g>
   </g>
   <g class="com.sun.star.drawing.PolyPolygonShape">
    <g id="id4">
     <rect class="BoundingBox" stroke="none" fill="none" x="7705" y="20594" width="366" height="393"/>
     <path fill="rgb(35,15,189)" stroke="none" d="M 7957,20910 L 7818,20910 7792,20985 7705,20985 7845,20595 7930,20595 8070,20985 7983,20985 7957,20910 Z M 7932,20839 L 7888,20712 7843,20839 7932,20839 Z"/>
    </g>
   </g>
   <g class="com.sun.star.drawing.PolyPolygonShape">
    <g id="id5">
     <rect class="BoundingBox" stroke="none" fill="none" x="8239" y="20595" width="209" height="391"/>
     <path fill="rgb(35,15,189)" stroke="none" d="M 8322,20914 L 8446,20914 8446,20985 8240,20985 8240,20595 8322,20595 8322,20914 Z"/>
    </g>
   </g>
   <g class="com.sun.star.drawing.PolyPolygonShape">
    <g id="id6">
     <rect class="BoundingBox" stroke="none" fill="none" x="8456" y="20667" width="311" height="324"/>
     <path fill="rgb(35,15,189)" stroke="none" d="M 8766,20821 L 8766,20830 8765,20840 8764,20851 8762,20862 8542,20862 8542,20864 8543,20867 8543,20869 8544,20871 8545,20874 8546,20876 8547,20878 8548,20881 8551,20885 8555,20890 8559,20894 8563,20899 8569,20903 8574,20907 8580,20910 8586,20913 8592,20915 8599,20916 8606,20917 8613,20917 8618,20917 8623,20917 8628,20916 8633,20915 8637,20913 8641,20912 8646,20909 8649,20907 8653,20904 8657,20901 8660,20898 8664,20894 8667,20890 8670,20886 8672,20881 8675,20876 8762,20876 8757,20891 8751,20904 8745,20916 8738,20927 8731,20937 8723,20946 8715,20955 8706,20962 8696,20969 8686,20974 8675,20979 8664,20983 8652,20986 8639,20988 8627,20990 8613,20990 8602,20990 8591,20989 8581,20987 8571,20985 8561,20982 8551,20979 8542,20975 8533,20970 8524,20964 8516,20959 8508,20952 8501,20945 8494,20938 8488,20930 8482,20922 8477,20913 8472,20903 8468,20894 8464,20884 8462,20873 8459,20863 8458,20852 8457,20840 8457,20828 8457,20817 8458,20805 8459,20794 8461,20783 8464,20773 8468,20763 8472,20753 8476,20744 8481,20735 8487,20727 8493,20719 8500,20711 8507,20705 8515,20698 8523,20692 8532,20687 8541,20683 8550,20678 8560,20675 8570,20672 8580,20670 8591,20668 8602,20668 8613,20667 8624,20668 8635,20668 8645,20670 8655,20672 8665,20675 8674,20678 8683,20682 8692,20687 8701,20692 8709,20697 8716,20703 8723,20710 8730,20717 8736,20725 8741,20733 8746,20741 8751,20750 8755,20759 8758,20769 8761,20779 8763,20789 8765,20799 8766,20810 8766,20821 Z M 8681,20791 L 8681,20789 8680,20787 8680,20785 8679,20783 8679,20781 8678,20778 8677,20776 8676,20774 8673,20770 8669,20766 8665,20761 8661,20757 8655,20753 8650,20750 8644,20747 8638,20744 8632,20742 8625,20741 8618,20740 8610,20740 8604,20740 8597,20741 8591,20742 8585,20744 8580,20747 8574,20750 8569,20753 8564,20757 8560,20761 8556,20766 8552,20770 8549,20774 8547,20778 8546,20781 8545,20783 8544,20785 8544,20787 8543,20789 8543,20791 8681,20791 Z"/>
    </g>
   </g>
   <g class="com.sun.star.drawing.PolyPolygonShape">
    <g id="id7">
     <rect class="BoundingBox" stroke="none" fill="none" x="8782" y="20666" width="324" height="464"/>
     <path fill="rgb(35,15,189)" stroke="none" d="M 8931,20667 L 8940,20667 8949,20668 8957,20669 8966,20671 8974,20673 8981,20675 8989,20678 8996,20682 9009,20688 9013,20691 9017,20694 9020,20696 9022,20697 9023,20698 9023,20698 9023,20699 9024,20699 9024,20699 9024,20700 9024,20700 9024,20700 9021,20672 9104,20672 9104,20979 9104,20989 9103,21000 9101,21010 9099,21020 9097,21029 9094,21038 9090,21047 9086,21056 9081,21064 9075,21072 9070,21079 9063,21086 9056,21093 9049,21099 9041,21104 9033,21110 9024,21114 9015,21118 9005,21121 8995,21124 8984,21126 8974,21128 8962,21129 8951,21129 8935,21129 8921,21127 8906,21125 8893,21121 8880,21117 8868,21112 8856,21106 8845,21099 8840,21095 8835,21091 8831,21086 8826,21082 8822,21077 8818,21071 8815,21066 8812,21060 8809,21054 8806,21048 8801,21034 8798,21020 8796,21004 8876,21004 8878,21010 8881,21016 8883,21022 8887,21027 8890,21031 8894,21036 8896,21038 8899,21039 8901,21041 8903,21043 8908,21045 8913,21048 8919,21050 8925,21052 8931,21053 8937,21054 8944,21054 8951,21055 8959,21054 8966,21053 8973,21052 8980,21050 8983,21049 8986,21047 8989,21046 8992,21044 8994,21042 8997,21040 8999,21038 9002,21036 9004,21033 9006,21031 9008,21028 9010,21025 9012,21022 9014,21019 9015,21015 9016,21012 9018,21005 9020,20997 9021,20988 9021,20979 9024,20956 9024,20956 9024,20957 9024,20957 9023,20957 9023,20958 9022,20959 9021,20959 9020,20960 9017,20962 9013,20965 9008,20968 8996,20975 8988,20978 8981,20981 8973,20984 8965,20986 8957,20988 8949,20989 8940,20990 8931,20990 8921,20990 8911,20989 8901,20987 8892,20985 8882,20982 8873,20978 8864,20974 8856,20969 8848,20964 8840,20958 8832,20951 8825,20944 8819,20937 8813,20929 8807,20920 8802,20911 8798,20902 8794,20892 8790,20882 8787,20871 8785,20861 8784,20850 8783,20839 8783,20827 8783,20816 8784,20804 8785,20794 8787,20783 8790,20773 8794,20763 8798,20753 8802,20744 8807,20735 8813,20727 8819,20719 8825,20712 8832,20705 8840,20698 8848,20693 8856,20687 8865,20683 8873,20678 8882,20675 8892,20672 8901,20670 8911,20668 8921,20667 8931,20667 Z M 9021,20828 L 9021,20822 9020,20815 9020,20809 9018,20803 9017,20797 9015,20792 9013,20786 9010,20781 9007,20776 9004,20772 9001,20768 8998,20764 8994,20760 8990,20757 8986,20754 8982,20751 8977,20749 8973,20747 8968,20745 8963,20744 8959,20743 8954,20742 8949,20741 8944,20741 8939,20741 8934,20742 8929,20743 8924,20744 8919,20745 8915,20747 8910,20749 8906,20751 8902,20754 8898,20757 8894,20760 8890,20764 8887,20767 8883,20771 8880,20776 8877,20781 8875,20785 8873,20791 8871,20796 8869,20802 8868,20808 8867,20814 8867,20820 8867,20827 8867,20834 8867,20840 8868,20847 8869,20853 8871,20859 8873,20864 8875,20870 8878,20875 8880,20880 8883,20884 8887,20888 8890,20892 8894,20896 8898,20899 8902,20903 8906,20905 8911,20908 8915,20910 8920,20912 8925,20913 8929,20914 8934,20915 8939,20915 8944,20916 8949,20915 8954,20915 8959,20914 8963,20913 8968,20912 8973,20910 8977,20908 8982,20906 8986,20903 8990,20900 8994,20897 8998,20893 9001,20889 9004,20885 9007,20880 9010,20875 9013,20870 9015,20865 9017,20859 9018,20854 9020,20848 9020,20841 9021,20835 9021,20828 Z"/>
    </g>
   </g>
   <g class="com.sun.star.drawing.PolyPolygonShape">
    <g id="id8">
     <rect class="BoundingBox" stroke="none" fill="none" x="9142" y="20666" width="324" height="325"/>
     <path fill="rgb(35,15,189)" stroke="none" d="M 9143,20827 L 9143,20816 9144,20804 9145,20794 9147,20783 9150,20773 9154,20763 9158,20753 9162,20744 9167,20735 9173,20727 9179,20719 9185,20712 9192,20705 9200,20698 9208,20693 9216,20687 9225,20683 9233,20678 9242,20675 9252,20672 9261,20670 9271,20668 9281,20667 9291,20667 9300,20667 9309,20668 9318,20669 9326,20671 9334,20673 9342,20675 9349,20678 9356,20682 9368,20688 9373,20691 9377,20694 9380,20696 9381,20697 9382,20697 9383,20698 9383,20699 9383,20699 9384,20699 9384,20700 9384,20700 9381,20672 9464,20672 9464,20985 9381,20985 9384,20957 9384,20957 9384,20957 9383,20957 9383,20958 9383,20958 9382,20959 9381,20960 9380,20961 9377,20963 9373,20965 9368,20968 9355,20975 9348,20979 9341,20982 9333,20984 9325,20986 9316,20988 9308,20989 9299,20990 9290,20990 9280,20990 9270,20989 9261,20987 9251,20985 9242,20982 9233,20978 9224,20974 9216,20969 9207,20964 9200,20958 9192,20951 9185,20944 9179,20937 9173,20929 9167,20920 9162,20911 9158,20902 9154,20892 9150,20882 9147,20871 9145,20861 9144,20850 9143,20839 9143,20827 Z M 9381,20828 L 9381,20822 9380,20815 9380,20809 9378,20803 9377,20797 9375,20792 9373,20786 9370,20781 9367,20776 9364,20772 9361,20768 9358,20764 9354,20760 9350,20757 9346,20754 9342,20751 9337,20749 9333,20747 9328,20745 9323,20744 9319,20743 9314,20742 9309,20741 9304,20741 9299,20741 9294,20742 9289,20743 9284,20744 9279,20745 9275,20747 9270,20749 9266,20751 9262,20754 9258,20757 9254,20760 9250,20764 9247,20767 9243,20771 9240,20776 9237,20781 9235,20785 9233,20791 9231,20796 9229,20802 9228,20808 9227,20814 9227,20820 9227,20827 9227,20834 9227,20840 9228,20847 9229,20853 9231,20859 9233,20864 9235,20870 9238,20875 9240,20880 9243,20884 9247,20888 9250,20892 9254,20896 9258,20899 9262,20903 9266,20905 9271,20908 9275,20910 9280,20912 9285,20913 9289,20914 9294,20915 9299,20915 9304,20916 9309,20915 9314,20915 9319,20914 9323,20913 9328,20912 9333,20910 9337,20908 9342,20906 9346,20903 9350,20900 9354,20897 9358,20893 9361,20889 9364,20885 9367,20880 9370,20875 9373,20870 9375,20865 9377,20859 9378,20854 9380,20848 9380,20841 9381,20835 9381,20828 Z"/>
    </g>
   </g>
   <g class="com.sun.star.drawing.PolyPolygonShape">
    <g id="id9">
     <rect class="BoundingBox" stroke="none" fill="none" x="9522" y="20571" width="85" height="415"/>
     <path fill="rgb(35,15,189)" stroke="none" d="M 9605,20572 L 9605,20985 9523,20985 9523,20572 9605,20572 Z"/>
    </g>
   </g>
   <g class="com.sun.star.drawing.PolyPolygonShape">
    <g id="id10">
     <rect class="BoundingBox" stroke="none" fill="none" x="9781" y="20586" width="424" height="407"/>
     <path fill="rgb(35,15,189)" stroke="none" d="M 10093,20985 L 10052,20944 10047,20949 10041,20954 10035,20958 10029,20963 10022,20967 10015,20971 10007,20975 9999,20978 9990,20981 9982,20984 9973,20987 9964,20989 9954,20990 9945,20991 9935,20992 9925,20992 9915,20992 9905,20991 9895,20990 9885,20988 9876,20986 9867,20984 9859,20981 9851,20977 9843,20973 9835,20969 9828,20964 9821,20959 9815,20953 9810,20947 9804,20941 9800,20934 9795,20927 9792,20919 9789,20911 9786,20903 9784,20895 9783,20886 9782,20877 9782,20868 9782,20858 9783,20848 9785,20838 9787,20829 9791,20820 9795,20811 9800,20802 9805,20794 9811,20786 9818,20779 9824,20772 9831,20766 9838,20761 9845,20756 9853,20752 9861,20748 9859,20746 9857,20744 9856,20741 9854,20738 9852,20734 9850,20731 9847,20722 9845,20718 9844,20713 9842,20708 9841,20703 9841,20698 9840,20693 9840,20688 9840,20683 9840,20676 9841,20669 9842,20663 9843,20656 9845,20650 9848,20645 9851,20639 9854,20633 9858,20628 9862,20623 9866,20618 9871,20614 9876,20610 9882,20606 9888,20603 9894,20599 9900,20596 9907,20594 9914,20592 9921,20590 9929,20589 9937,20588 9945,20587 9953,20587 9961,20587 9969,20588 9977,20589 9984,20590 9992,20592 9999,20594 10005,20597 10011,20600 10017,20604 10023,20608 10028,20612 10033,20616 10037,20621 10042,20626 10045,20632 10049,20637 10051,20643 10054,20650 10056,20657 10057,20665 10058,20673 10058,20681 10058,20690 10058,20699 9976,20699 9976,20693 9976,20687 9975,20682 9975,20678 9974,20674 9973,20672 9973,20671 9972,20669 9971,20668 9971,20667 9970,20666 9969,20665 9968,20664 9967,20663 9966,20662 9965,20662 9964,20661 9963,20661 9961,20660 9960,20660 9959,20659 9956,20659 9953,20658 9950,20658 9947,20658 9944,20659 9941,20659 9938,20660 9937,20660 9936,20661 9935,20662 9934,20662 9933,20663 9932,20664 9931,20664 9930,20665 9928,20667 9926,20669 9926,20670 9925,20671 9924,20672 9924,20673 9923,20674 9923,20675 9923,20677 9923,20678 9922,20679 9922,20680 9922,20683 9922,20685 9922,20688 9923,20691 9924,20694 9925,20697 9926,20700 9928,20703 9929,20706 9931,20709 9934,20713 9939,20721 9947,20729 9956,20740 10043,20826 10077,20771 10167,20771 10110,20869 10101,20884 10203,20985 10093,20985 Z M 9925,20919 L 9936,20918 9946,20917 9951,20916 9956,20915 9961,20913 9965,20911 9970,20909 9974,20907 9978,20905 9982,20902 9986,20899 9990,20896 9994,20893 9997,20889 9913,20804 9907,20807 9901,20809 9896,20812 9891,20815 9887,20818 9883,20822 9879,20825 9876,20829 9873,20833 9871,20837 9869,20842 9867,20846 9866,20851 9865,20856 9864,20861 9864,20866 9864,20872 9864,20874 9865,20877 9865,20879 9866,20882 9867,20884 9868,20887 9869,20889 9870,20891 9872,20893 9873,20895 9875,20898 9877,20900 9881,20904 9883,20905 9885,20907 9887,20909 9890,20910 9892,20912 9895,20913 9900,20915 9906,20917 9912,20918 9918,20918 9925,20919 Z"/>
    </g>
   </g>
   <g class="com.sun.star.drawing.PolyPolygonShape">
    <g id="id11">
     <rect class="BoundingBox" stroke="none" fill="none" x="10323" y="20590" width="388" height="399"/>
     <path fill="rgb(35,15,189)" stroke="none" d="M 10324,20790 L 10324,20775 10325,20762 10327,20748 10330,20736 10334,20723 10339,20711 10344,20699 10350,20687 10357,20676 10365,20666 10373,20656 10382,20647 10391,20638 10401,20630 10411,20623 10423,20616 10434,20610 10446,20605 10458,20601 10470,20597 10483,20595 10496,20593 10509,20591 10522,20591 10538,20591 10553,20593 10567,20595 10581,20599 10595,20603 10608,20608 10621,20614 10633,20622 10645,20630 10656,20639 10666,20650 10676,20662 10686,20676 10694,20690 10702,20706 10709,20723 10614,20723 10610,20716 10606,20709 10601,20702 10596,20696 10591,20691 10586,20686 10581,20682 10575,20679 10570,20676 10564,20673 10557,20671 10551,20669 10544,20668 10537,20667 10530,20666 10522,20666 10514,20666 10506,20667 10498,20668 10491,20670 10483,20672 10476,20674 10470,20677 10463,20681 10457,20685 10451,20689 10445,20694 10440,20699 10435,20704 10430,20710 10426,20717 10422,20724 10419,20731 10416,20738 10413,20746 10411,20754 10410,20762 10408,20771 10408,20780 10408,20790 10408,20799 10408,20808 10410,20817 10411,20825 10413,20833 10416,20841 10419,20848 10422,20855 10426,20862 10430,20869 10435,20875 10440,20880 10445,20885 10451,20890 10457,20895 10463,20899 10470,20902 10476,20905 10483,20908 10491,20910 10498,20912 10506,20913 10514,20913 10522,20914 10530,20913 10537,20913 10544,20912 10551,20910 10557,20909 10564,20906 10570,20904 10575,20901 10581,20897 10586,20893 10591,20889 10596,20883 10601,20877 10606,20871 10610,20864 10614,20856 10709,20856 10702,20873 10694,20889 10686,20904 10676,20917 10666,20929 10656,20940 10645,20949 10633,20958 10621,20965 10608,20971 10595,20976 10581,20980 10567,20984 10553,20986 10538,20988 10522,20988 10509,20988 10496,20986 10483,20984 10470,20982 10458,20978 10446,20974 10434,20969 10422,20963 10411,20956 10401,20949 10391,20941 10382,20932 10373,20923 10365,20913 10357,20903 10350,20892 10344,20880 10339,20868 10334,20856 10330,20843 10327,20831 10325,20817 10324,20804 10324,20790 Z"/>
    </g>
   </g>
   <g class="com.sun.star.drawing.PolyPolygonShape">
    <g id="id12">
     <rect class="BoundingBox" stroke="none" fill="none" x="10735" y="20666" width="321" height="325"/>
     <path fill="rgb(35,15,189)" stroke="none" d="M 10892,20990 L 10881,20990 10871,20989 10860,20987 10850,20985 10840,20982 10831,20979 10821,20975 10812,20970 10803,20964 10795,20959 10787,20952 10780,20945 10773,20938 10767,20930 10761,20922 10756,20913 10751,20903 10747,20894 10743,20884 10740,20873 10738,20863 10736,20851 10735,20840 10735,20828 10735,20817 10736,20805 10738,20794 10740,20783 10743,20773 10747,20763 10751,20753 10756,20744 10762,20735 10768,20726 10774,20719 10781,20711 10789,20704 10796,20698 10805,20692 10814,20687 10823,20682 10832,20678 10842,20675 10852,20672 10862,20670 10873,20668 10884,20667 10895,20667 10906,20667 10917,20668 10927,20670 10937,20672 10947,20675 10957,20678 10967,20682 10976,20687 10985,20692 10993,20698 11001,20704 11008,20711 11015,20719 11022,20726 11028,20735 11033,20744 11038,20753 11043,20763 11046,20773 11049,20783 11051,20794 11053,20805 11054,20817 11054,20828 11054,20840 11053,20851 11051,20862 11049,20873 11046,20883 11042,20893 11038,20903 11033,20913 11027,20922 11021,20930 11014,20938 11007,20945 11000,20952 10992,20959 10983,20965 10974,20970 10965,20975 10955,20979 10945,20982 10935,20985 10925,20987 10914,20989 10903,20990 10892,20990 Z M 10892,20916 L 10897,20915 10902,20915 10907,20914 10912,20913 10917,20912 10921,20910 10926,20908 10930,20906 10935,20903 10939,20900 10943,20897 10946,20894 10950,20890 10953,20886 10956,20881 10959,20877 10962,20872 10964,20866 10966,20861 10968,20855 10969,20849 10970,20842 10970,20835 10971,20828 10970,20821 10970,20814 10969,20808 10968,20802 10966,20796 10964,20790 10962,20785 10960,20780 10957,20775 10954,20771 10951,20767 10947,20763 10944,20760 10940,20756 10936,20754 10932,20751 10927,20749 10923,20747 10918,20745 10913,20744 10909,20743 10904,20742 10899,20741 10894,20741 10889,20741 10884,20742 10879,20743 10874,20744 10869,20745 10865,20747 10860,20749 10856,20751 10852,20754 10848,20756 10844,20760 10841,20763 10837,20767 10834,20771 10831,20775 10829,20780 10826,20785 10824,20790 10822,20796 10821,20802 10820,20808 10819,20814 10819,20821 10819,20828 10819,20839 10820,20848 10821,20857 10824,20866 10827,20874 10828,20877 10830,20881 10832,20884 10835,20887 10837,20890 10839,20893 10845,20899 10848,20901 10851,20903 10854,20905 10857,20907 10860,20909 10863,20910 10866,20911 10870,20913 10873,20913 10877,20914 10884,20915 10892,20916 Z"/>
    </g>
   </g>
   <g class="com.sun.star.drawing.PolyPolygonShape">
    <g id="id13">
     <rect class="BoundingBox" stroke="none" fill="none" x="11093" y="20666" width="497" height="320"/>
     <path fill="rgb(35,15,189)" stroke="none" d="M 11458,20667 L 11467,20667 11476,20668 11484,20669 11493,20671 11501,20673 11509,20676 11517,20679 11525,20683 11532,20687 11539,20691 11545,20696 11551,20702 11557,20708 11562,20715 11567,20722 11572,20729 11576,20737 11579,20745 11582,20754 11584,20763 11586,20772 11588,20782 11588,20792 11589,20802 11589,20985 11507,20985 11507,20811 11507,20803 11506,20795 11505,20788 11503,20781 11500,20774 11499,20772 11498,20769 11496,20766 11494,20764 11492,20761 11490,20759 11488,20757 11486,20755 11484,20753 11481,20751 11479,20750 11476,20748 11474,20747 11471,20746 11468,20745 11465,20744 11459,20742 11452,20742 11445,20741 11438,20742 11431,20742 11425,20744 11422,20745 11419,20746 11416,20747 11413,20748 11411,20750 11408,20751 11406,20753 11403,20755 11401,20757 11399,20759 11397,20761 11395,20764 11393,20766 11392,20769 11390,20772 11389,20774 11388,20778 11387,20781 11385,20788 11383,20795 11383,20803 11382,20811 11382,20985 11301,20985 11301,20811 11300,20803 11299,20795 11298,20788 11296,20781 11294,20774 11293,20772 11291,20769 11290,20766 11288,20764 11286,20761 11284,20759 11282,20757 11280,20755 11277,20753 11275,20751 11273,20750 11270,20748 11267,20747 11264,20746 11262,20745 11259,20744 11252,20742 11246,20742 11239,20741 11231,20742 11225,20742 11218,20744 11215,20745 11213,20746 11210,20747 11207,20748 11204,20750 11202,20751 11199,20753 11197,20755 11195,20757 11193,20759 11191,20761 11189,20764 11187,20766 11185,20769 11184,20772 11183,20774 11181,20778 11180,20781 11178,20788 11177,20795 11176,20803 11176,20811 11176,20985 11094,20985 11094,20672 11176,20672 11173,20693 11173,20693 11173,20692 11174,20692 11174,20692 11174,20691 11174,20691 11175,20690 11176,20690 11177,20689 11179,20687 11183,20685 11187,20683 11198,20678 11204,20675 11211,20673 11217,20671 11224,20670 11230,20669 11237,20668 11244,20667 11251,20667 11261,20667 11270,20668 11278,20669 11287,20671 11295,20673 11304,20676 11311,20679 11319,20683 11326,20687 11333,20691 11338,20695 11343,20698 11348,20702 11351,20705 11352,20707 11354,20708 11355,20710 11356,20712 11356,20710 11357,20709 11359,20707 11360,20706 11363,20703 11367,20700 11372,20696 11378,20692 11392,20684 11399,20680 11407,20677 11415,20674 11423,20671 11432,20669 11440,20668 11449,20667 11458,20667 Z"/>
    </g>
   </g>
   <g class="com.sun.star.drawing.PolyPolygonShape">
    <g id="id14">
     <rect class="BoundingBox" stroke="none" fill="none" x="11643" y="20666" width="497" height="320"/>
     <path fill="rgb(35,15,189)" stroke="none" d="M 12008,20667 L 12017,20667 12026,20668 12034,20669 12043,20671 12051,20673 12059,20676 12067,20679 12075,20683 12082,20687 12089,20691 12095,20696 12101,20702 12107,20708 12112,20715 12117,20722 12122,20729 12126,20737 12129,20745 12132,20754 12134,20763 12136,20772 12138,20782 12138,20792 12139,20802 12139,20985 12057,20985 12057,20811 12057,20803 12056,20795 12055,20788 12053,20781 12050,20774 12049,20772 12048,20769 12046,20766 12044,20764 12042,20761 12040,20759 12038,20757 12036,20755 12034,20753 12031,20751 12029,20750 12026,20748 12024,20747 12021,20746 12018,20745 12015,20744 12009,20742 12002,20742 11995,20741 11988,20742 11981,20742 11975,20744 11972,20745 11969,20746 11966,20747 11963,20748 11961,20750 11958,20751 11956,20753 11953,20755 11951,20757 11949,20759 11947,20761 11945,20764 11943,20766 11942,20769 11940,20772 11939,20774 11938,20778 11936,20781 11935,20788 11933,20795 11933,20803 11932,20811 11932,20985 11851,20985 11851,20811 11850,20803 11849,20795 11848,20788 11846,20781 11844,20774 11843,20772 11841,20769 11840,20766 11838,20764 11836,20761 11834,20759 11832,20757 11830,20755 11827,20753 11825,20751 11823,20750 11820,20748 11817,20747 11814,20746 11812,20745 11809,20744 11802,20742 11796,20742 11789,20741 11781,20742 11775,20742 11768,20744 11765,20745 11763,20746 11760,20747 11757,20748 11754,20750 11752,20751 11749,20753 11747,20755 11745,20757 11743,20759 11741,20761 11739,20764 11737,20766 11735,20769 11734,20772 11733,20774 11731,20778 11730,20781 11728,20788 11727,20795 11726,20803 11726,20811 11726,20985 11644,20985 11644,20672 11726,20672 11723,20693 11723,20693 11723,20692 11724,20692 11724,20692 11724,20691 11724,20691 11725,20690 11726,20690 11727,20689 11729,20687 11733,20685 11737,20683 11748,20678 11754,20675 11761,20673 11767,20671 11774,20670 11780,20669 11787,20668 11794,20667 11801,20667 11811,20667 11820,20668 11828,20669 11837,20671 11845,20673 11854,20676 11861,20679 11869,20683 11876,20687 11883,20691 11888,20695 11893,20698 11898,20702 11901,20705 11902,20707 11904,20708 11905,20710 11906,20712 11906,20710 11907,20709 11909,20707 11910,20706 11913,20703 11917,20700 11922,20696 11928,20692 11942,20684 11949,20680 11957,20677 11965,20674 11973,20671 11982,20669 11990,20668 11999,20667 12008,20667 Z"/>
    </g>
   </g>
   <g class="com.sun.star.drawing.PolyPolygonShape">
    <g id="id15">
     <rect class="BoundingBox" stroke="none" fill="none" x="12173" y="20667" width="311" height="324"/>
     <path fill="rgb(35,15,189)" stroke="none" d="M 12483,20821 L 12483,20830 12482,20840 12481,20851 12479,20862 12259,20862 12259,20864 12260,20867 12260,20869 12261,20871 12262,20874 12263,20876 12264,20878 12265,20881 12268,20885 12272,20890 12276,20894 12280,20899 12286,20903 12291,20907 12297,20910 12303,20913 12309,20915 12316,20916 12323,20917 12330,20917 12335,20917 12340,20917 12345,20916 12350,20915 12354,20913 12358,20912 12363,20909 12366,20907 12370,20904 12374,20901 12377,20898 12381,20894 12384,20890 12387,20886 12389,20881 12392,20876 12479,20876 12474,20891 12468,20904 12462,20916 12455,20927 12448,20937 12440,20946 12432,20955 12423,20962 12413,20969 12403,20974 12392,20979 12381,20983 12369,20986 12356,20988 12344,20990 12330,20990 12319,20990 12308,20989 12298,20987 12288,20985 12278,20982 12268,20979 12259,20975 12250,20970 12241,20964 12233,20959 12225,20952 12218,20945 12211,20938 12205,20930 12199,20922 12194,20913 12189,20903 12185,20894 12181,20884 12179,20873 12176,20863 12175,20852 12174,20840 12174,20828 12174,20817 12175,20805 12176,20794 12178,20783 12181,20773 12185,20763 12189,20753 12193,20744 12198,20735 12204,20727 12210,20719 12217,20711 12224,20705 12232,20698 12240,20692 12249,20687 12258,20683 12267,20678 12277,20675 12287,20672 12297,20670 12308,20668 12319,20668 12330,20667 12341,20668 12352,20668 12362,20670 12372,20672 12382,20675 12391,20678 12400,20682 12409,20687 12418,20692 12426,20697 12433,20703 12440,20710 12447,20717 12453,20725 12458,20733 12463,20741 12468,20750 12472,20759 12475,20769 12478,20779 12480,20789 12482,20799 12483,20810 12483,20821 Z M 12398,20791 L 12398,20789 12397,20787 12397,20785 12396,20783 12396,20781 12395,20778 12394,20776 12393,20774 12390,20770 12386,20766 12382,20761 12378,20757 12372,20753 12367,20750 12361,20747 12355,20744 12349,20742 12342,20741 12335,20740 12327,20740 12321,20740 12314,20741 12308,20742 12302,20744 12297,20747 12291,20750 12286,20753 12281,20757 12277,20761 12273,20766 12269,20770 12266,20774 12264,20778 12263,20781 12262,20783 12261,20785 12261,20787 12260,20789 12260,20791 12398,20791 Z"/>
    </g>
   </g>
   <g class="com.sun.star.drawing.PolyPolygonShape">
    <g id="id16">
     <rect class="BoundingBox" stroke="none" fill="none" x="12519" y="20666" width="172" height="320"/>
     <path fill="rgb(35,15,189)" stroke="none" d="M 12598,20699 L 12598,20699 12598,20699 12598,20698 12598,20698 12598,20698 12598,20697 12599,20696 12600,20695 12600,20694 12602,20693 12603,20692 12606,20690 12610,20687 12621,20681 12627,20678 12634,20675 12642,20672 12650,20670 12659,20669 12668,20668 12679,20667 12689,20667 12689,20751 12663,20751 12655,20752 12648,20752 12642,20753 12636,20755 12633,20756 12631,20757 12628,20758 12626,20760 12623,20761 12621,20763 12619,20764 12617,20766 12615,20768 12614,20770 12612,20773 12610,20775 12609,20778 12608,20781 12607,20784 12606,20787 12604,20794 12603,20802 12602,20811 12602,20821 12602,20985 12520,20985 12520,20672 12602,20672 12598,20699 Z"/>
    </g>
   </g>
   <g class="com.sun.star.drawing.PolyPolygonShape">
    <g id="id17">
     <rect class="BoundingBox" stroke="none" fill="none" x="12703" y="20667" width="305" height="324"/>
     <path fill="rgb(35,15,189)" stroke="none" d="M 12704,20828 L 12704,20817 12705,20805 12706,20794 12708,20783 12711,20773 12715,20763 12719,20753 12723,20744 12728,20735 12734,20727 12740,20719 12747,20711 12754,20705 12761,20698 12769,20693 12778,20687 12787,20683 12796,20678 12805,20675 12815,20672 12825,20670 12836,20668 12846,20668 12857,20667 12871,20668 12884,20669 12897,20671 12909,20674 12921,20678 12932,20683 12942,20688 12952,20695 12956,20698 12961,20702 12965,20706 12969,20710 12977,20720 12984,20731 12991,20743 12996,20756 13002,20771 13006,20786 12919,20786 12917,20780 12914,20774 12911,20769 12908,20764 12905,20760 12902,20756 12899,20753 12897,20752 12895,20750 12891,20748 12887,20746 12883,20744 12878,20743 12873,20741 12868,20741 12863,20740 12857,20740 12850,20740 12846,20741 12842,20741 12839,20742 12835,20743 12832,20744 12829,20746 12826,20747 12823,20749 12820,20751 12817,20753 12814,20755 12811,20757 12809,20760 12807,20763 12804,20766 12802,20769 12800,20772 12798,20775 12796,20779 12795,20783 12792,20790 12790,20799 12789,20808 12788,20818 12787,20828 12788,20839 12789,20849 12790,20858 12792,20866 12795,20874 12798,20882 12800,20885 12802,20888 12804,20891 12807,20894 12809,20897 12811,20900 12814,20902 12817,20904 12820,20906 12823,20908 12826,20910 12829,20912 12832,20913 12835,20914 12839,20915 12842,20916 12846,20916 12850,20917 12857,20917 12863,20917 12868,20917 12873,20916 12878,20914 12883,20913 12887,20911 12891,20908 12895,20906 12899,20903 12902,20899 12906,20895 12909,20891 12912,20887 12914,20882 12917,20877 12919,20871 13006,20871 13002,20886 12996,20900 12990,20913 12984,20925 12976,20936 12968,20945 12960,20954 12955,20958 12951,20962 12941,20968 12931,20974 12920,20979 12909,20983 12897,20986 12884,20988 12871,20990 12857,20990 12846,20990 12836,20989 12825,20987 12815,20985 12805,20982 12796,20979 12787,20974 12778,20970 12769,20964 12761,20959 12754,20952 12747,20945 12740,20938 12734,20930 12728,20922 12723,20913 12719,20903 12715,20894 12711,20884 12708,20873 12706,20863 12705,20852 12704,20840 12704,20828 Z"/>
    </g>
   </g>
   <g class="com.sun.star.drawing.PolyPolygonShape">
    <g id="id18">
     <rect class="BoundingBox" stroke="none" fill="none" x="13032" y="20555" width="101" height="432"/>
     <path fill="rgb(35,15,189)" stroke="none" d="M 13082,20655 L 13077,20655 13072,20654 13068,20653 13065,20652 13063,20652 13061,20651 13059,20650 13057,20648 13055,20647 13051,20644 13047,20641 13044,20637 13041,20633 13040,20631 13038,20629 13037,20627 13036,20625 13035,20623 13035,20620 13034,20616 13033,20611 13033,20606 13033,20600 13034,20596 13035,20591 13035,20589 13036,20586 13037,20584 13038,20582 13040,20580 13041,20578 13044,20574 13047,20570 13051,20567 13055,20564 13057,20563 13059,20562 13061,20561 13063,20560 13065,20559 13068,20558 13072,20557 13077,20556 13082,20556 13087,20556 13092,20557 13095,20557 13097,20558 13099,20559 13101,20560 13103,20561 13106,20562 13108,20563 13110,20564 13113,20567 13117,20570 13120,20574 13123,20578 13125,20580 13126,20582 13127,20584 13128,20586 13129,20589 13129,20591 13131,20596 13131,20600 13131,20606 13131,20611 13131,20616 13129,20620 13129,20623 13128,20625 13127,20627 13126,20629 13125,20631 13123,20633 13120,20637 13117,20641 13113,20644 13110,20647 13108,20648 13106,20650 13103,20651 13101,20652 13099,20652 13097,20653 13095,20654 13092,20654 13087,20655 13082,20655 Z M 13123,20672 L 13123,20985 13041,20985 13041,20672 13123,20672 Z"/>
    </g>
   </g>
   <g class="com.sun.star.drawing.PolyPolygonShape">
    <g id="id19">
     <rect class="BoundingBox" stroke="none" fill="none" x="13160" y="20666" width="324" height="325"/>
     <path fill="rgb(35,15,189)" stroke="none" d="M 13161,20827 L 13161,20816 13162,20804 13163,20794 13165,20783 13168,20773 13172,20763 13176,20753 13180,20744 13185,20735 13191,20727 13197,20719 13203,20712 13210,20705 13218,20698 13226,20693 13234,20687 13243,20683 13251,20678 13260,20675 13270,20672 13279,20670 13289,20668 13299,20667 13309,20667 13318,20667 13327,20668 13336,20669 13344,20671 13352,20673 13360,20675 13367,20678 13374,20682 13386,20688 13391,20691 13395,20694 13398,20696 13399,20697 13400,20697 13401,20698 13401,20699 13401,20699 13402,20699 13402,20700 13402,20700 13399,20672 13482,20672 13482,20985 13399,20985 13402,20957 13402,20957 13402,20957 13401,20957 13401,20958 13401,20958 13400,20959 13399,20960 13398,20961 13395,20963 13391,20965 13386,20968 13373,20975 13366,20979 13359,20982 13351,20984 13343,20986 13334,20988 13326,20989 13317,20990 13308,20990 13298,20990 13288,20989 13279,20987 13269,20985 13260,20982 13251,20978 13242,20974 13234,20969 13225,20964 13218,20958 13210,20951 13203,20944 13197,20937 13191,20929 13185,20920 13180,20911 13176,20902 13172,20892 13168,20882 13165,20871 13163,20861 13162,20850 13161,20839 13161,20827 Z M 13399,20828 L 13399,20822 13398,20815 13398,20809 13396,20803 13395,20797 13393,20792 13391,20786 13388,20781 13385,20776 13382,20772 13379,20768 13376,20764 13372,20760 13368,20757 13364,20754 13360,20751 13355,20749 13351,20747 13346,20745 13341,20744 13337,20743 13332,20742 13327,20741 13322,20741 13317,20741 13312,20742 13307,20743 13302,20744 13297,20745 13293,20747 13288,20749 13284,20751 13280,20754 13276,20757 13272,20760 13268,20764 13265,20767 13261,20771 13258,20776 13255,20781 13253,20785 13251,20791 13249,20796 13247,20802 13246,20808 13245,20814 13245,20820 13245,20827 13245,20834 13245,20840 13246,20847 13247,20853 13249,20859 13251,20864 13253,20870 13256,20875 13258,20880 13261,20884 13265,20888 13268,20892 13272,20896 13276,20899 13280,20903 13284,20905 13289,20908 13293,20910 13298,20912 13303,20913 13307,20914 13312,20915 13317,20915 13322,20916 13327,20915 13332,20915 13337,20914 13341,20913 13346,20912 13351,20910 13355,20908 13360,20906 13364,20903 13368,20900 13372,20897 13376,20893 13379,20889 13382,20885 13385,20880 13388,20875 13391,20870 13393,20865 13395,20859 13396,20854 13398,20848 13398,20841 13399,20835 13399,20828 Z"/>
    </g>
   </g>
   <g class="com.sun.star.drawing.PolyPolygonShape">
    <g id="id20">
     <rect class="BoundingBox" stroke="none" fill="none" x="13540" y="20571" width="85" height="415"/>
     <path fill="rgb(35,15,189)" stroke="none" d="M 13623,20572 L 13623,20985 13541,20985 13541,20572 13623,20572 Z"/>
    </g>
   </g>
  </g>
  <g class="com.sun.star.drawing.PolyPolygonShape">
   <g id="id21">
    <rect class="BoundingBox" stroke="none" fill="none" x="7502" y="15079" width="5988" height="4989"/>
    <path fill="rgb(247,7,7)" stroke="none" d="M 7999,15079 L 9996,15079 9996,15081 10020,15080 10053,15081 10086,15084 10118,15089 10150,15097 10181,15106 10212,15117 10242,15131 10271,15146 10299,15163 10326,15182 10351,15202 10375,15224 10397,15247 10418,15272 10437,15298 10455,15326 10470,15354 10484,15384 10495,15414 10505,15444 10512,15476 10518,15507 10521,15539 10522,15572 10521,15604 10518,15636 10512,15667 10505,15699 10495,15729 10484,15759 10470,15789 10455,15817 10437,15845 10418,15871 10397,15896 10375,15919 10351,15941 10326,15961 10299,15980 10271,15997 10242,16012 10212,16026 10181,16037 10150,16046 10118,16054 10086,16059 10053,16062 10020,16063 9996,16062 9996,16064 8049,16064 8038,16065 8027,16065 8015,16066 8004,16066 7971,16065 7938,16062 7906,16057 7874,16049 7843,16040 7812,16029 7782,16015 7753,16000 7725,15983 7698,15964 7673,15944 7649,15922 7627,15899 7606,15874 7587,15848 7569,15820 7554,15792 7540,15762 7529,15732 7519,15702 7512,15670 7506,15639 7503,15607 7502,15575 7503,15542 7506,15510 7512,15479 7519,15447 7529,15417 7540,15387 7554,15357 7569,15329 7587,15301 7606,15275 7627,15250 7649,15227 7673,15205 7698,15185 7725,15166 7753,15149 7782,15134 7811,15121 7841,15110 7872,15100 7903,15093 7935,15088 7967,15084 7999,15083 7999,15079 Z M 8000,19080 L 9790,19080 12547,15335 12552,15326 12570,15298 12589,15272 12610,15247 12632,15224 12656,15202 12681,15182 12708,15163 12736,15146 12765,15131 12795,15117 12826,15106 12857,15097 12889,15089 12921,15084 12954,15081 12987,15080 13020,15081 13053,15084 13085,15089 13117,15097 13148,15106 13179,15117 13209,15131 13238,15146 13266,15163 13293,15182 13318,15202 13342,15224 13364,15247 13385,15272 13404,15298 13422,15326 13434,15348 13445,15370 13455,15393 13463,15416 13471,15439 13477,15463 13482,15488 13485,15512 13486,15512 13486,15518 13487,15531 13488,15545 13489,15558 13489,15572 13489,15585 13488,15598 13487,15612 13486,15625 13486,19519 13487,19532 13488,19546 13489,19559 13489,19573 13488,19605 13485,19637 13479,19668 13472,19700 13462,19730 13451,19760 13437,19790 13422,19818 13404,19846 13385,19872 13364,19897 13342,19920 13318,19942 13293,19962 13266,19981 13238,19998 13209,20013 13179,20027 13148,20038 13117,20047 13085,20055 13053,20060 13020,20063 12987,20064 12954,20063 12921,20060 12889,20055 12857,20047 12826,20038 12795,20027 12765,20013 12736,19998 12708,19981 12681,19962 12656,19942 12632,19920 12610,19897 12589,19872 12570,19846 12552,19818 12539,19795 12527,19770 12517,19745 12508,19720 12501,19694 12495,19668 12490,19642 12487,19615 12481,19615 12481,17086 10460,19831 10451,19844 10442,19857 10433,19870 10423,19882 10421,19884 10421,19884 10406,19900 10391,19916 10375,19931 10359,19945 10341,19959 10323,19972 10305,19984 10286,19995 10257,20010 10227,20024 10196,20035 10165,20044 10133,20052 10101,20057 10068,20060 10035,20061 10028,20061 10028,20065 8049,20065 8038,20066 8027,20066 8015,20067 8004,20067 7971,20066 7938,20063 7906,20058 7874,20050 7843,20041 7812,20030 7782,20016 7753,20001 7725,19984 7698,19965 7673,19945 7649,19923 7627,19900 7606,19875 7587,19849 7569,19821 7554,19793 7540,19763 7529,19733 7519,19703 7512,19671 7506,19640 7503,19608 7502,19576 7503,19543 7506,19511 7512,19480 7519,19448 7529,19418 7540,19388 7554,19358 7569,19330 7587,19302 7606,19276 7627,19251 7649,19228 7673,19206 7698,19186 7725,19167 7753,19150 7782,19135 7811,19122 7841,19111 7872,19101 7904,19094 7935,19089 7968,19085 8000,19084 8000,19080 Z M 7999,17080 L 9460,17080 9460,17080 9496,17079 9529,17080 9562,17083 9594,17088 9626,17096 9657,17105 9688,17116 9718,17130 9747,17145 9775,17162 9802,17181 9827,17201 9851,17223 9873,17246 9894,17271 9913,17297 9931,17325 9946,17353 9960,17383 9971,17413 9981,17443 9988,17475 9994,17506 9997,17538 9998,17571 9997,17603 9994,17635 9988,17666 9981,17698 9971,17728 9960,17758 9946,17788 9931,17816 9913,17844 9894,17870 9873,17895 9851,17918 9827,17940 9802,17960 9775,17979 9747,17996 9718,18011 9688,18025 9657,18036 9626,18045 9594,18053 9562,18058 9529,18061 9496,18062 9460,18061 9460,18065 8049,18065 8038,18066 8027,18066 8015,18067 8004,18067 7971,18066 7938,18063 7906,18058 7874,18050 7843,18041 7812,18030 7782,18016 7753,18001 7725,17984 7698,17965 7673,17945 7649,17923 7627,17900 7606,17875 7587,17849 7569,17821 7554,17793 7540,17763 7529,17733 7519,17703 7512,17671 7506,17640 7503,17608 7502,17576 7503,17543 7506,17511 7512,17480 7519,17448 7529,17418 7540,17388 7554,17358 7569,17330 7587,17302 7606,17276 7627,17251 7649,17228 7673,17206 7698,17186 7725,17167 7753,17150 7782,17135 7811,17122 7841,17111 7872,17101 7903,17094 7935,17089 7967,17085 7999,17084 7999,17080 Z"/>
   </g>
  </g>
 </g>
</svg>