<?xml version="1.0" encoding="UTF-8"?>
<!DOCTYPE svg PUBLIC "-//W3C//DTD SVG 1.1//EN" "http://www.w3.org/Graphics/SVG/1.1/DTD/svg11.dtd">
<svg version="1.2" width="110.07mm" height="110.07mm" viewBox="4727 15300 11007 11007" preserveAspectRatio="xMidYMid" fill-rule="evenodd" stroke-width="28.222" stroke-linejoin="round" xmlns="http://www.w3.org/2000/svg" xmlns:ooo="http://xml.openoffice.org/svg/export" xmlns:xlink="http://www.w3.org/1999/xlink" xmlns:presentation="http://sun.com/xmlns/staroffice/presentation" xmlns:smil="http://www.w3.org/2001/SMIL20/" xmlns:anim="urn:oasis:names:tc:opendocument:xmlns:animation:1.0" xmlns:svg="urn:oasis:names:tc:opendocument:xmlns:svg-compatible:1.0" xml:space="preserve">
 <defs class="EmbeddedBulletChars">
  <g id="bullet-char-template-57356" transform="scale(0.00048828125,-0.00048828125)">
   <path d="M 580,1141 L 1163,571 580,0 -4,571 580,1141 Z"/>
  </g>
  <g id="bullet-char-template-57354" transform="scale(0.00048828125,-0.00048828125)">
   <path d="M 8,1128 L 1137,1128 1137,0 8,0 8,1128 Z"/>
  </g>
  <g id="bullet-char-template-10146" transform="scale(0.00048828125,-0.00048828125)">
   <path d="M 174,0 L 602,739 174,1481 1456,739 174,0 Z M 1358,739 L 309,1346 659,739 1358,739 Z"/>
  </g>
  <g id="bullet-char-template-10132" transform="scale(0.00048828125,-0.00048828125)">
   <path d="M 2015,739 L 1276,0 717,0 1260,543 174,543 174,936 1260,936 717,1481 1274,1481 2015,739 Z"/>
  </g>
  <g id="bullet-char-template-10007" transform="scale(0.00048828125,-0.00048828125)">
   <path d="M 0,-2 C -7,14 -16,27 -25,37 L 356,567 C 262,823 215,952 215,954 215,979 228,992 255,992 264,992 276,990 289,987 310,991 331,999 354,1012 L 381,999 492,748 772,1049 836,1024 860,1049 C 881,1039 901,1025 922,1006 886,937 835,863 770,784 769,783 710,716 594,584 L 774,223 C 774,196 753,168 711,139 L 727,119 C 717,90 699,76 672,76 641,76 570,178 457,381 L 164,-76 C 142,-110 111,-127 72,-127 30,-127 9,-110 8,-76 1,-67 -2,-52 -2,-32 -2,-23 -1,-13 0,-2 Z"/>
  </g>
  <g id="bullet-char-template-10004" transform="scale(0.00048828125,-0.00048828125)">
   <path d="M 285,-33 C 182,-33 111,30 74,156 52,228 41,333 41,471 41,549 55,616 82,672 116,743 169,778 240,778 293,778 328,747 346,684 L 369,508 C 377,444 397,411 428,410 L 1163,1116 C 1174,1127 1196,1133 1229,1133 1271,1133 1292,1118 1292,1087 L 1292,965 C 1292,929 1282,901 1262,881 L 442,47 C 390,-6 338,-33 285,-33 Z"/>
  </g>
  <g id="bullet-char-template-9679" transform="scale(0.00048828125,-0.00048828125)">
   <path d="M 813,0 C 632,0 489,54 383,161 276,268 223,411 223,592 223,773 276,916 383,1023 489,1130 632,1184 813,1184 992,1184 1136,1130 1245,1023 1353,916 1407,772 1407,592 1407,412 1353,268 1245,161 1136,54 992,0 813,0 Z"/>
  </g>
  <g id="bullet-char-template-8226" transform="scale(0.00048828125,-0.00048828125)">
   <path d="M 346,457 C 273,457 209,483 155,535 101,586 74,649 74,723 74,796 101,859 155,911 209,963 273,989 346,989 419,989 480,963 531,910 582,859 608,796 608,723 608,648 583,586 532,535 482,483 420,457 346,457 Z"/>
  </g>
  <g id="bullet-char-template-8211" transform="scale(0.00048828125,-0.00048828125)">
   <path d="M -4,459 L 1135,459 1135,606 -4,606 -4,459 Z"/>
  </g>
  <g id="bullet-char-template-61548" transform="scale(0.00048828125,-0.00048828125)">
   <path d="M 173,740 C 173,903 231,1043 346,1159 462,1274 601,1332 765,1332 928,1332 1067,1274 1183,1159 1299,1043 1357,903 1357,740 1357,577 1299,437 1183,322 1067,206 928,148 765,148 601,148 462,206 346,322 231,437 173,577 173,740 Z"/>
  </g>
 </defs>
 <g class="Page">
  <g class="Group">
   <g class="com.sun.star.drawing.CustomShape">
    <g id="id3">
     <rect class="BoundingBox" stroke="none" fill="none" x="4727" y="15300" width="11007" height="11007"/>
    </g>
   </g>
   <g class="Group">
    <g class="com.sun.star.drawing.ClosedBezierShape">
     <g id="id4">
      <rect class="BoundingBox" stroke="none" fill="none" x="7238" y="23602" width="227" height="392"/>
      <path fill="rgb(35,15,189)" stroke="none" d="M 7321,23674 C 7321,23703 7321,23731 7321,23760 7363,23760 7406,23760 7448,23760 7448,23784 7448,23807 7448,23831 7406,23831 7363,23831 7321,23831 7321,23861 7321,23892 7321,23922 7369,23922 7416,23922 7464,23922 7464,23946 7464,23969 7464,23993 7389,23993 7314,23993 7239,23993 7239,23863 7239,23733 7239,23603 7314,23603 7389,23603 7464,23603 7464,23627 7464,23650 7464,23674 7416,23674 7369,23674 7321,23674 Z"/>
     </g>
    </g>
    <g class="com.sun.star.drawing.ClosedBezierShape">
     <g id="id5">
      <rect class="BoundingBox" stroke="none" fill="none" x="7491" y="23602" width="366" height="392"/>
      <path fill="rgb(35,15,189)" stroke="none" d="M 7743,23918 C 7696,23918 7650,23918 7604,23918 7595,23943 7587,23968 7578,23993 7549,23993 7520,23993 7491,23993 7538,23863 7584,23733 7631,23603 7659,23603 7688,23603 7716,23603 7763,23733 7809,23863 7856,23993 7827,23993 7798,23993 7769,23993 7760,23968 7751,23943 7743,23918 Z M 7718,23847 C 7703,23805 7688,23762 7674,23720 7659,23762 7644,23805 7629,23847 7659,23847 7688,23847 7718,23847 Z"/>
     </g>
    </g>
    <g class="com.sun.star.drawing.ClosedBezierShape">
     <g id="id6">
      <rect class="BoundingBox" stroke="none" fill="none" x="8025" y="23603" width="209" height="391"/>
      <path fill="rgb(35,15,189)" stroke="none" d="M 8108,23922 C 8149,23922 8191,23922 8232,23922 8232,23946 8232,23969 8232,23993 8163,23993 8095,23993 8026,23993 8026,23863 8026,23733 8026,23603 8053,23603 8081,23603 8108,23603 8108,23710 8108,23816 8108,23922 Z"/>
     </g>
    </g>
    <g class="com.sun.star.drawing.ClosedBezierShape">
     <g id="id7">
      <rect class="BoundingBox" stroke="none" fill="none" x="8242" y="23675" width="311" height="325"/>
      <path fill="rgb(35,15,189)" stroke="none" d="M 8552,23829 C 8552,23841 8551,23854 8548,23870 L 8328,23870 C 8329,23882 8336,23895 8349,23907 8363,23919 8379,23925 8399,23925 8427,23925 8448,23912 8461,23884 L 8548,23884 C 8535,23923 8517,23952 8492,23970 8467,23989 8436,23998 8399,23998 8369,23998 8342,23991 8319,23978 8295,23964 8276,23945 8263,23921 8249,23896 8243,23868 8243,23836 8243,23805 8249,23776 8262,23752 8275,23727 8294,23709 8318,23695 8341,23682 8369,23675 8399,23675 8428,23675 8455,23682 8478,23695 8501,23708 8519,23726 8532,23749 8545,23773 8552,23799 8552,23829 Z M 8467,23799 C 8467,23788 8460,23777 8447,23765 8433,23754 8417,23748 8396,23748 8378,23748 8363,23754 8350,23765 8338,23776 8330,23788 8329,23799 L 8467,23799 Z"/>
     </g>
    </g>
    <g class="com.sun.star.drawing.ClosedBezierShape">
     <g id="id8">
      <rect class="BoundingBox" stroke="none" fill="none" x="8568" y="23674" width="324" height="465"/>
      <path fill="rgb(35,15,189)" stroke="none" d="M 8717,23675 C 8741,23675 8763,23680 8782,23690 8801,23699 8810,23706 8810,23708 L 8807,23680 8890,23680 8890,23987 C 8890,24016 8884,24041 8872,24064 8859,24087 8842,24105 8819,24118 8796,24130 8768,24137 8737,24137 8695,24137 8660,24127 8631,24107 8603,24087 8586,24055 8582,24012 L 8662,24012 C 8667,24030 8676,24043 8689,24051 8702,24059 8718,24063 8737,24063 8758,24063 8775,24056 8788,24044 8801,24031 8807,24012 8807,23987 L 8810,23964 C 8810,23966 8801,23973 8782,23983 8763,23993 8741,23998 8717,23998 8690,23998 8665,23991 8642,23977 8619,23963 8601,23944 8588,23919 8575,23894 8569,23866 8569,23835 8569,23804 8575,23776 8588,23752 8601,23728 8619,23709 8642,23695 8665,23682 8690,23675 8717,23675 Z M 8807,23836 C 8807,23818 8803,23802 8796,23789 8789,23776 8779,23766 8768,23759 8756,23753 8743,23749 8730,23749 8716,23749 8704,23753 8692,23759 8680,23766 8671,23776 8663,23789 8656,23801 8653,23817 8653,23835 8653,23853 8656,23869 8664,23883 8671,23896 8680,23906 8692,23913 8704,23920 8717,23924 8730,23924 8743,23924 8756,23920 8768,23914 8779,23907 8789,23897 8796,23883 8803,23870 8807,23854 8807,23836 Z"/>
     </g>
    </g>
    <g class="com.sun.star.drawing.ClosedBezierShape">
     <g id="id9">
      <rect class="BoundingBox" stroke="none" fill="none" x="8928" y="23674" width="324" height="325"/>
      <path fill="rgb(35,15,189)" stroke="none" d="M 8929,23835 C 8929,23804 8935,23776 8948,23752 8961,23728 8979,23709 9002,23695 9025,23682 9050,23675 9077,23675 9102,23675 9124,23680 9142,23690 9161,23699 9170,23705 9170,23708 L 9167,23680 9250,23680 9250,23993 9167,23993 9170,23965 C 9170,23967 9161,23973 9141,23983 9122,23993 9100,23998 9076,23998 9049,23998 9024,23991 9002,23977 8979,23963 8961,23944 8948,23919 8935,23894 8929,23866 8929,23835 Z M 9167,23836 C 9167,23818 9163,23802 9156,23789 9149,23776 9139,23766 9128,23759 9116,23753 9103,23749 9090,23749 9076,23749 9064,23753 9052,23759 9040,23766 9031,23776 9023,23789 9016,23801 9013,23817 9013,23835 9013,23853 9016,23869 9024,23883 9031,23896 9040,23906 9052,23913 9064,23920 9077,23924 9090,23924 9103,23924 9116,23920 9128,23914 9139,23907 9149,23897 9156,23883 9163,23870 9167,23854 9167,23836 Z"/>
     </g>
    </g>
    <g class="com.sun.star.drawing.ClosedBezierShape">
     <g id="id10">
      <rect class="BoundingBox" stroke="none" fill="none" x="9308" y="23579" width="85" height="415"/>
      <path fill="rgb(35,15,189)" stroke="none" d="M 9391,23580 C 9391,23718 9391,23855 9391,23993 9364,23993 9336,23993 9309,23993 9309,23855 9309,23718 9309,23580 9336,23580 9364,23580 9391,23580 Z"/>
     </g>
    </g>
    <g class="com.sun.star.drawing.ClosedBezierShape">
     <g id="id11">
      <rect class="BoundingBox" stroke="none" fill="none" x="9567" y="23594" width="424" height="407"/>
      <path fill="rgb(35,15,189)" stroke="none" d="M 9879,23993 L 9838,23952 C 9825,23966 9807,23977 9785,23986 9763,23995 9738,24000 9711,24000 9683,24000 9658,23995 9637,23985 9615,23975 9598,23961 9586,23942 9574,23923 9568,23901 9568,23876 9568,23849 9575,23824 9591,23802 9607,23780 9625,23765 9647,23756 9642,23751 9637,23742 9633,23730 9628,23718 9626,23705 9626,23691 9626,23672 9630,23656 9640,23641 9649,23627 9663,23615 9680,23607 9697,23599 9717,23595 9739,23595 9761,23595 9781,23599 9797,23608 9814,23617 9826,23630 9835,23645 9843,23661 9846,23682 9844,23707 L 9762,23707 C 9762,23690 9760,23679 9756,23674 9751,23669 9745,23666 9736,23666 9727,23666 9721,23669 9716,23673 9711,23678 9708,23684 9708,23691 9708,23698 9710,23706 9715,23714 9720,23722 9729,23733 9742,23748 L 9829,23834 9863,23779 9953,23779 9896,23877 9887,23892 9989,23993 9879,23993 Z M 9711,23927 C 9741,23927 9765,23917 9783,23897 L 9699,23812 C 9666,23825 9650,23846 9650,23874 9650,23889 9655,23901 9667,23912 9678,23922 9692,23927 9711,23927 Z"/>
     </g>
    </g>
    <g class="com.sun.star.drawing.ClosedBezierShape">
     <g id="id12">
      <rect class="BoundingBox" stroke="none" fill="none" x="10109" y="23598" width="388" height="399"/>
      <path fill="rgb(35,15,189)" stroke="none" d="M 10110,23798 C 10110,23760 10118,23726 10136,23695 10154,23665 10178,23641 10209,23624 10239,23607 10272,23599 10308,23599 10350,23599 10387,23609 10419,23630 10451,23650 10477,23684 10495,23731 L 10400,23731 C 10389,23710 10377,23695 10361,23687 10346,23678 10329,23674 10308,23674 10286,23674 10266,23679 10249,23689 10232,23699 10218,23713 10208,23732 10198,23750 10194,23772 10194,23798 10194,23823 10198,23845 10208,23863 10218,23882 10232,23897 10249,23907 10266,23917 10286,23922 10308,23922 10329,23922 10346,23917 10361,23909 10377,23900 10389,23886 10400,23864 L 10495,23864 C 10477,23912 10451,23945 10419,23966 10386,23986 10350,23996 10308,23996 10272,23996 10239,23988 10208,23971 10178,23954 10154,23930 10136,23900 10118,23869 10110,23835 10110,23798 Z"/>
     </g>
    </g>
    <g class="com.sun.star.drawing.ClosedBezierShape">
     <g id="id13">
      <rect class="BoundingBox" stroke="none" fill="none" x="10521" y="23674" width="321" height="325"/>
      <path fill="rgb(35,15,189)" stroke="none" d="M 10678,23998 C 10649,23998 10622,23991 10598,23978 10574,23964 10555,23945 10542,23921 10528,23896 10521,23868 10521,23836 10521,23805 10528,23777 10542,23752 10556,23727 10575,23708 10600,23695 10624,23682 10651,23675 10681,23675 10711,23675 10738,23682 10762,23695 10786,23708 10805,23727 10819,23752 10833,23777 10840,23805 10840,23836 10840,23868 10833,23896 10819,23921 10804,23945 10785,23964 10760,23978 10735,23991 10708,23998 10678,23998 Z M 10678,23924 C 10692,23924 10705,23920 10716,23914 10728,23908 10738,23898 10745,23885 10753,23872 10757,23855 10757,23836 10757,23817 10753,23801 10746,23788 10739,23775 10729,23765 10718,23759 10706,23753 10693,23749 10680,23749 10666,23749 10654,23753 10642,23759 10631,23765 10622,23775 10615,23788 10608,23801 10605,23817 10605,23836 10605,23865 10611,23886 10625,23901 10639,23916 10657,23924 10678,23924 Z"/>
     </g>
    </g>
    <g class="com.sun.star.drawing.ClosedBezierShape">
     <g id="id14">
      <rect class="BoundingBox" stroke="none" fill="none" x="10879" y="23674" width="497" height="320"/>
      <path fill="rgb(35,15,189)" stroke="none" d="M 11244,23675 C 11268,23675 11291,23680 11311,23691 11330,23701 11346,23717 11358,23737 11369,23757 11375,23782 11375,23810 L 11375,23993 11293,23993 11293,23819 C 11293,23796 11287,23779 11276,23767 11265,23755 11250,23749 11231,23749 11211,23749 11196,23755 11185,23767 11174,23779 11168,23796 11168,23819 L 11168,23993 11087,23993 11087,23819 C 11087,23796 11081,23779 11070,23767 11059,23755 11044,23749 11025,23749 11005,23749 10990,23755 10979,23767 10968,23779 10962,23796 10962,23819 L 10962,23993 10880,23993 10880,23680 10962,23680 10959,23701 C 10959,23698 10967,23693 10984,23686 11001,23679 11018,23675 11037,23675 11062,23675 11085,23680 11105,23691 11125,23702 11137,23711 11142,23720 11145,23713 11157,23704 11178,23692 11198,23681 11220,23675 11244,23675 Z"/>
     </g>
    </g>
    <g class="com.sun.star.drawing.ClosedBezierShape">
     <g id="id15">
      <rect class="BoundingBox" stroke="none" fill="none" x="11429" y="23674" width="497" height="320"/>
      <path fill="rgb(35,15,189)" stroke="none" d="M 11794,23675 C 11818,23675 11841,23680 11861,23691 11880,23701 11896,23717 11908,23737 11919,23757 11925,23782 11925,23810 L 11925,23993 11843,23993 11843,23819 C 11843,23796 11837,23779 11826,23767 11815,23755 11800,23749 11781,23749 11761,23749 11746,23755 11735,23767 11724,23779 11718,23796 11718,23819 L 11718,23993 11637,23993 11637,23819 C 11637,23796 11631,23779 11620,23767 11609,23755 11594,23749 11575,23749 11555,23749 11540,23755 11529,23767 11518,23779 11512,23796 11512,23819 L 11512,23993 11430,23993 11430,23680 11512,23680 11509,23701 C 11509,23698 11517,23693 11534,23686 11551,23679 11568,23675 11587,23675 11612,23675 11635,23680 11655,23691 11675,23702 11687,23711 11692,23720 11695,23713 11707,23704 11728,23692 11748,23681 11770,23675 11794,23675 Z"/>
     </g>
    </g>
    <g class="com.sun.star.drawing.ClosedBezierShape">
     <g id="id16">
      <rect class="BoundingBox" stroke="none" fill="none" x="11959" y="23675" width="311" height="325"/>
      <path fill="rgb(35,15,189)" stroke="none" d="M 12269,23829 C 12269,23841 12268,23854 12265,23870 L 12045,23870 C 12046,23882 12053,23895 12066,23907 12080,23919 12096,23925 12116,23925 12144,23925 12165,23912 12178,23884 L 12265,23884 C 12252,23923 12234,23952 12209,23970 12184,23989 12153,23998 12116,23998 12086,23998 12059,23991 12036,23978 12012,23964 11993,23945 11980,23921 11966,23896 11960,23868 11960,23836 11960,23805 11966,23776 11979,23752 11992,23727 12011,23709 12035,23695 12058,23682 12086,23675 12116,23675 12145,23675 12172,23682 12195,23695 12218,23708 12236,23726 12249,23749 12262,23773 12269,23799 12269,23829 Z M 12184,23799 C 12184,23788 12177,23777 12164,23765 12150,23754 12134,23748 12113,23748 12095,23748 12080,23754 12067,23765 12055,23776 12047,23788 12046,23799 L 12184,23799 Z"/>
     </g>
    </g>
    <g class="com.sun.star.drawing.ClosedBezierShape">
     <g id="id17">
      <rect class="BoundingBox" stroke="none" fill="none" x="12305" y="23674" width="172" height="320"/>
      <path fill="rgb(35,15,189)" stroke="none" d="M 12384,23707 C 12383,23704 12390,23698 12407,23689 12423,23680 12446,23675 12475,23675 L 12475,23759 12449,23759 C 12428,23759 12413,23764 12403,23774 12393,23784 12388,23802 12388,23829 L 12388,23993 12306,23993 12306,23680 12388,23680 12384,23707 Z"/>
     </g>
    </g>
    <g class="com.sun.star.drawing.ClosedBezierShape">
     <g id="id18">
      <rect class="BoundingBox" stroke="none" fill="none" x="12489" y="23675" width="305" height="325"/>
      <path fill="rgb(35,15,189)" stroke="none" d="M 12490,23836 C 12490,23805 12496,23776 12509,23752 12522,23728 12541,23709 12564,23695 12587,23682 12614,23675 12643,23675 12681,23675 12712,23684 12738,23703 12763,23721 12781,23751 12792,23794 L 12705,23794 C 12699,23777 12691,23765 12681,23758 12671,23751 12659,23748 12643,23748 12622,23748 12605,23756 12593,23771 12580,23786 12573,23808 12573,23836 12573,23865 12580,23887 12593,23902 12605,23918 12622,23925 12643,23925 12673,23925 12694,23910 12705,23879 L 12792,23879 C 12781,23921 12762,23951 12737,23970 12712,23989 12680,23998 12643,23998 12614,23998 12587,23991 12564,23978 12540,23964 12522,23945 12509,23921 12496,23896 12490,23868 12490,23836 Z"/>
     </g>
    </g>
    <g class="com.sun.star.drawing.ClosedBezierShape">
     <g id="id19">
      <rect class="BoundingBox" stroke="none" fill="none" x="12818" y="23563" width="101" height="432"/>
      <path fill="rgb(35,15,189)" stroke="none" d="M 12868,23663 C 12854,23663 12843,23658 12833,23649 12824,23639 12819,23628 12819,23614 12819,23600 12824,23588 12833,23578 12843,23569 12854,23564 12868,23564 12882,23564 12894,23569 12903,23578 12913,23588 12917,23600 12917,23614 12917,23628 12913,23639 12903,23649 12894,23658 12882,23663 12868,23663 Z M 12909,23680 L 12909,23993 12827,23993 12827,23680 12909,23680 Z"/>
     </g>
    </g>
    <g class="com.sun.star.drawing.ClosedBezierShape">
     <g id="id20">
      <rect class="BoundingBox" stroke="none" fill="none" x="12946" y="23674" width="324" height="325"/>
      <path fill="rgb(35,15,189)" stroke="none" d="M 12947,23835 C 12947,23804 12953,23776 12966,23752 12979,23728 12997,23709 13020,23695 13043,23682 13068,23675 13095,23675 13120,23675 13142,23680 13160,23690 13179,23699 13188,23705 13188,23708 L 13185,23680 13268,23680 13268,23993 13185,23993 13188,23965 C 13188,23967 13179,23973 13159,23983 13140,23993 13118,23998 13094,23998 13067,23998 13042,23991 13020,23977 12997,23963 12979,23944 12966,23919 12953,23894 12947,23866 12947,23835 Z M 13185,23836 C 13185,23818 13181,23802 13174,23789 13167,23776 13157,23766 13146,23759 13134,23753 13121,23749 13108,23749 13094,23749 13082,23753 13070,23759 13058,23766 13049,23776 13041,23789 13034,23801 13031,23817 13031,23835 13031,23853 13034,23869 13042,23883 13049,23896 13058,23906 13070,23913 13082,23920 13095,23924 13108,23924 13121,23924 13134,23920 13146,23914 13157,23907 13167,23897 13174,23883 13181,23870 13185,23854 13185,23836 Z"/>
     </g>
    </g>
    <g class="com.sun.star.drawing.ClosedBezierShape">
     <g id="id21">
      <rect class="BoundingBox" stroke="none" fill="none" x="13326" y="23579" width="85" height="415"/>
      <path fill="rgb(35,15,189)" stroke="none" d="M 13409,23580 C 13409,23718 13409,23855 13409,23993 13382,23993 13354,23993 13327,23993 13327,23855 13327,23718 13327,23580 13354,23580 13382,23580 13409,23580 Z"/>
     </g>
    </g>
   </g>
   <g class="Group">
    <g class="com.sun.star.drawing.CustomShape">
     <g id="id22">
      <rect class="BoundingBox" stroke="none" fill="none" x="7785" y="17587" width="1998" height="986"/>
      <path fill="rgb(247,7,7)" stroke="none" d="M 8784,18572 L 7785,18572 7785,17587 9782,17587 9782,18572 8784,18572 Z"/>
     </g>
    </g>
    <g class="com.sun.star.drawing.CustomShape">
     <g id="id23">
      <rect class="BoundingBox" stroke="none" fill="none" x="9304" y="17588" width="1005" height="984"/>
      <path fill="rgb(247,7,7)" stroke="none" d="M 10308,18080 C 10308,18166 10285,18251 10241,18325 10197,18400 10133,18462 10057,18505 9981,18548 9894,18571 9806,18571 9718,18571 9631,18548 9555,18505 9479,18462 9415,18400 9371,18325 9327,18251 9304,18166 9304,18080 9304,17993 9327,17908 9371,17834 9415,17759 9479,17697 9555,17654 9631,17611 9718,17588 9806,17588 9894,17588 9981,17611 10057,17654 10133,17697 10197,17759 10241,17834 10285,17908 10308,17993 10308,18080 L 10308,18080 Z"/>
     </g>
    </g>
    <g class="com.sun.star.drawing.CustomShape">
     <g id="id24">
      <rect class="BoundingBox" stroke="none" fill="none" x="7288" y="17591" width="1005" height="984"/>
      <path fill="rgb(247,7,7)" stroke="none" d="M 8292,18083 C 8292,18169 8269,18254 8225,18328 8181,18403 8117,18465 8041,18508 7965,18551 7878,18574 7790,18574 7702,18574 7615,18551 7539,18508 7463,18465 7399,18403 7355,18328 7311,18254 7288,18169 7288,18083 7288,17996 7311,17911 7355,17837 7399,17762 7463,17700 7539,17657 7615,17614 7702,17591 7790,17591 7878,17591 7965,17614 8041,17657 8117,17700 8181,17762 8225,17837 8269,17911 8292,17996 8292,18083 L 8292,18083 Z"/>
     </g>
    </g>
    <g class="com.sun.star.drawing.CustomShape">
     <g id="id25">
      <rect class="BoundingBox" stroke="none" fill="none" x="7786" y="21588" width="2029" height="986"/>
      <path fill="rgb(247,7,7)" stroke="none" d="M 8800,22573 L 7786,22573 7786,21588 9814,21588 9814,22573 8800,22573 Z"/>
     </g>
    </g>
    <g class="com.sun.star.drawing.CustomShape">
     <g id="id26">
      <rect class="BoundingBox" stroke="none" fill="none" x="9319" y="21586" width="1005" height="984"/>
      <path fill="rgb(247,7,7)" stroke="none" d="M 10323,22078 C 10323,22164 10300,22249 10256,22323 10212,22398 10148,22460 10072,22503 9996,22546 9909,22569 9821,22569 9733,22569 9646,22546 9570,22503 9494,22460 9430,22398 9386,22323 9342,22249 9319,22164 9319,22078 9319,21991 9342,21906 9386,21832 9430,21757 9494,21695 9570,21652 9646,21609 9733,21586 9821,21586 9909,21586 9996,21609 10072,21652 10148,21695 10212,21757 10256,21832 10300,21906 10323,21991 10323,22078 L 10323,22078 Z"/>
     </g>
    </g>
    <g class="com.sun.star.drawing.CustomShape">
     <g id="id27">
      <rect class="BoundingBox" stroke="none" fill="none" x="7288" y="21592" width="1005" height="984"/>
      <path fill="rgb(247,7,7)" stroke="none" d="M 8292,22084 C 8292,22170 8269,22255 8225,22329 8181,22404 8117,22466 8041,22509 7965,22552 7878,22575 7790,22575 7702,22575 7615,22552 7539,22509 7463,22466 7399,22404 7355,22329 7311,22255 7288,22170 7288,22084 7288,21997 7311,21912 7355,21838 7399,21763 7463,21701 7539,21658 7615,21615 7702,21592 7790,21592 7878,21592 7965,21615 8041,21658 8117,21701 8181,21763 8225,21838 8269,21912 8292,21997 8292,22084 L 8292,22084 Z"/>
     </g>
    </g>
    <g class="com.sun.star.drawing.CustomShape">
     <g id="id28">
      <rect class="BoundingBox" stroke="none" fill="none" x="7785" y="19588" width="1462" height="986"/>
      <path fill="rgb(247,7,7)" stroke="none" d="M 8516,20573 L 7785,20573 7785,19588 9246,19588 9246,20573 8516,20573 Z"/>
     </g>
    </g>
    <g class="com.sun.star.drawing.CustomShape">
     <g id="id29">
      <rect class="BoundingBox" stroke="none" fill="none" x="8780" y="19587" width="1005" height="984"/>
      <path fill="rgb(247,7,7)" stroke="none" d="M 9784,20079 C 9784,20165 9761,20250 9717,20324 9673,20399 9609,20461 9533,20504 9457,20547 9370,20570 9282,20570 9194,20570 9107,20547 9031,20504 8955,20461 8891,20399 8847,20324 8803,20250 8780,20165 8780,20079 8780,19992 8803,19907 8847,19833 8891,19758 8955,19696 9031,19653 9107,19610 9194,19587 9282,19587 9370,19587 9457,19610 9533,19653 9609,19696 9673,19758 9717,19833 9761,19907 9784,19992 9784,20079 L 9784,20079 Z"/>
     </g>
    </g>
    <g class="com.sun.star.drawing.CustomShape">
     <g id="id30">
      <rect class="BoundingBox" stroke="none" fill="none" x="7288" y="19592" width="1005" height="984"/>
      <path fill="rgb(247,7,7)" stroke="none" d="M 8292,20084 C 8292,20170 8269,20255 8225,20329 8181,20404 8117,20466 8041,20509 7965,20552 7878,20575 7790,20575 7702,20575 7615,20552 7539,20509 7463,20466 7399,20404 7355,20329 7311,20255 7288,20170 7288,20084 7288,19997 7311,19912 7355,19838 7399,19763 7463,19701 7539,19658 7615,19615 7702,19592 7790,19592 7878,19592 7965,19615 8041,19658 8117,19701 8181,19763 8225,19838 8269,19912 8292,19997 8292,20084 L 8292,20084 Z"/>
     </g>
    </g>
    <g class="com.sun.star.drawing.CustomShape">
     <g id="id31">
      <rect class="BoundingBox" stroke="none" fill="none" x="12271" y="17588" width="1005" height="984"/>
      <path fill="rgb(247,7,7)" stroke="none" d="M 13275,18080 C 13275,18166 13252,18251 13208,18325 13164,18400 13100,18462 13024,18505 12948,18548 12861,18571 12773,18571 12685,18571 12598,18548 12522,18505 12446,18462 12382,18400 12338,18325 12294,18251 12271,18166 12271,18080 12271,17993 12294,17908 12338,17834 12382,17759 12446,17697 12522,17654 12598,17611 12685,17588 12773,17588 12861,17588 12948,17611 13024,17654 13100,17697 13164,17759 13208,17834 13252,17908 13275,17993 13275,18080 L 13275,18080 Z"/>
     </g>
    </g>
    <g class="com.sun.star.drawing.CustomShape">
     <g id="id32">
      <rect class="BoundingBox" stroke="none" fill="none" x="12271" y="21589" width="1005" height="984"/>
      <path fill="rgb(247,7,7)" stroke="none" d="M 13275,22081 C 13275,22167 13252,22252 13208,22326 13164,22401 13100,22463 13024,22506 12948,22549 12861,22572 12773,22572 12685,22572 12598,22549 12522,22506 12446,22463 12382,22401 12338,22326 12294,22252 12271,22167 12271,22081 12271,21994 12294,21909 12338,21835 12382,21760 12446,21698 12522,21655 12598,21612 12685,21589 12773,21589 12861,21589 12948,21612 13024,21655 13100,21698 13164,21760 13208,21835 13252,21909 13275,21994 13275,22081 L 13275,22081 Z"/>
     </g>
    </g>
    <g class="com.sun.star.drawing.CustomShape">
     <g id="id33">
      <rect class="BoundingBox" stroke="none" fill="none" x="9414" y="17770" width="3767" height="4623"/>
      <path fill="rgb(247,7,7)" stroke="none" d="M 11693,20373 L 10207,22392 9414,21808 12386,17771 13179,18355 11693,20373 Z"/>
     </g>
    </g>
    <g class="com.sun.star.drawing.CustomShape">
     <g id="id34">
      <rect class="BoundingBox" stroke="none" fill="none" x="12267" y="18020" width="1006" height="4104"/>
      <path fill="rgb(247,7,7)" stroke="none" d="M 13272,20072 L 13272,22123 12267,22123 12267,18020 13272,18020 13272,20072 Z"/>
     </g>
    </g>
   </g>
  </g>
 </g>
</svg>