<?xml version="1.0" encoding="UTF-8"?>
<!DOCTYPE svg PUBLIC "-//W3C//DTD SVG 1.1//EN" "http://www.w3.org/Graphics/SVG/1.1/DTD/svg11.dtd">
<svg version="1.2" width="193.12mm" height="160.1mm" viewBox="999 1000 19312 16010" preserveAspectRatio="xMidYMid" fill-rule="evenodd" stroke-width="28.222" stroke-linejoin="round" xmlns="http://www.w3.org/2000/svg" xmlns:ooo="http://xml.openoffice.org/svg/export" xmlns:xlink="http://www.w3.org/1999/xlink" xmlns:presentation="http://sun.com/xmlns/staroffice/presentation" xmlns:smil="http://www.w3.org/2001/SMIL20/" xmlns:anim="urn:oasis:names:tc:opendocument:xmlns:animation:1.0" xml:space="preserve">
 <defs class="EmbeddedBulletChars">
  <g id="bullet-char-template-57356" transform="scale(0.00048828125,-0.00048828125)">
   <path d="M 580,1141 L 1163,571 580,0 -4,571 580,1141 Z"/>
  </g>
  <g id="bullet-char-template-57354" transform="scale(0.00048828125,-0.00048828125)">
   <path d="M 8,1128 L 1137,1128 1137,0 8,0 8,1128 Z"/>
  </g>
  <g id="bullet-char-template-10146" transform="scale(0.00048828125,-0.00048828125)">
   <path d="M 174,0 L 602,739 174,1481 1456,739 174,0 Z M 1358,739 L 309,1346 659,739 1358,739 Z"/>
  </g>
  <g id="bullet-char-template-10132" transform="scale(0.00048828125,-0.00048828125)">
   <path d="M 2015,739 L 1276,0 717,0 1260,543 174,543 174,936 1260,936 717,1481 1274,1481 2015,739 Z"/>
  </g>
  <g id="bullet-char-template-10007" transform="scale(0.00048828125,-0.00048828125)">
   <path d="M 0,-2 C -7,14 -16,27 -25,37 L 356,567 C 262,823 215,952 215,954 215,979 228,992 255,992 264,992 276,990 289,987 310,991 331,999 354,1012 L 381,999 492,748 772,1049 836,1024 860,1049 C 881,1039 901,1025 922,1006 886,937 835,863 770,784 769,783 710,716 594,584 L 774,223 C 774,196 753,168 711,139 L 727,119 C 717,90 699,76 672,76 641,76 570,178 457,381 L 164,-76 C 142,-110 111,-127 72,-127 30,-127 9,-110 8,-76 1,-67 -2,-52 -2,-32 -2,-23 -1,-13 0,-2 Z"/>
  </g>
  <g id="bullet-char-template-10004" transform="scale(0.00048828125,-0.00048828125)">
   <path d="M 285,-33 C 182,-33 111,30 74,156 52,228 41,333 41,471 41,549 55,616 82,672 116,743 169,778 240,778 293,778 328,747 346,684 L 369,508 C 377,444 397,411 428,410 L 1163,1116 C 1174,1127 1196,1133 1229,1133 1271,1133 1292,1118 1292,1087 L 1292,965 C 1292,929 1282,901 1262,881 L 442,47 C 390,-6 338,-33 285,-33 Z"/>
  </g>
  <g id="bullet-char-template-9679" transform="scale(0.00048828125,-0.00048828125)">
   <path d="M 813,0 C 632,0 489,54 383,161 276,268 223,411 223,592 223,773 276,916 383,1023 489,1130 632,1184 813,1184 992,1184 1136,1130 1245,1023 1353,916 1407,772 1407,592 1407,412 1353,268 1245,161 1136,54 992,0 813,0 Z"/>
  </g>
  <g id="bullet-char-template-8226" transform="scale(0.00048828125,-0.00048828125)">
   <path d="M 346,457 C 273,457 209,483 155,535 101,586 74,649 74,723 74,796 101,859 155,911 209,963 273,989 346,989 419,989 480,963 531,910 582,859 608,796 608,723 608,648 583,586 532,535 482,483 420,457 346,457 Z"/>
  </g>
  <g id="bullet-char-template-8211" transform="scale(0.00048828125,-0.00048828125)">
   <path d="M -4,459 L 1135,459 1135,606 -4,606 -4,459 Z"/>
  </g>
  <g id="bullet-char-template-61548" transform="scale(0.00048828125,-0.00048828125)">
   <path d="M 173,740 C 173,903 231,1043 346,1159 462,1274 601,1332 765,1332 928,1332 1067,1274 1183,1159 1299,1043 1357,903 1357,740 1357,577 1299,437 1183,322 1067,206 928,148 765,148 601,148 462,206 346,322 231,437 173,577 173,740 Z"/>
  </g>
 </defs>
 <g class="Page">
  <g class="com.sun.star.drawing.PolyPolygonShape">
   <g id="id3">
    <rect class="BoundingBox" stroke="none" fill="none" x="1000" y="1000" width="19310" height="14467"/>
    <path fill="rgb(128,128,128)" stroke="none" d="M 1000,1000 L 12707,1000 20309,15466 17254,15466 16136,13528 12447,13528 12447,15423 1000,15466 1000,1000 Z M 4411,6577 L 4398,4472 9056,4472 9056,6559 4411,6577 Z M 4398,11925 L 4411,9923 9056,9950 9056,11925 4398,11925 Z M 12447,9950 L 12447,6559 14347,9950 12447,9950 Z"/>
   </g>
  </g>
  <g class="Group">
   <g class="com.sun.star.drawing.ClosedBezierShape">
    <g id="id4">
     <rect class="BoundingBox" stroke="none" fill="none" x="999" y="15997" width="626" height="780"/>
     <path fill="rgb(128,128,128)" stroke="none" d="M 1000,16775 C 1000,16516 1000,16257 1000,15998 1200,15998 1400,15998 1600,15998 1600,16027 1600,16055 1600,16084 1436,16084 1271,16084 1107,16084 1107,16167 1107,16250 1107,16333 1260,16333 1413,16333 1567,16333 1567,16361 1567,16390 1567,16418 1413,16418 1260,16418 1107,16418 1107,16508 1107,16599 1107,16689 1279,16689 1451,16689 1623,16689 1623,16718 1623,16746 1623,16775 1415,16775 1207,16775 1000,16775 Z"/>
    </g>
   </g>
   <g class="com.sun.star.drawing.ClosedBezierShape">
    <g id="id5">
     <rect class="BoundingBox" stroke="none" fill="none" x="2042" y="15998" width="765" height="779"/>
     <path fill="rgb(128,128,128)" stroke="none" d="M 2696,16776 L 2606,16548 2245,16548 2154,16776 2043,16776 2366,15998 2488,15998 2806,16776 2696,16776 Z M 2425,16077 L 2420,16093 C 2411,16123 2397,16163 2379,16210 L 2278,16466 2574,16466 2472,16209 C 2462,16184 2451,16155 2441,16123 L 2425,16077 Z"/>
    </g>
   </g>
   <g class="com.sun.star.drawing.ClosedBezierShape">
    <g id="id6">
     <rect class="BoundingBox" stroke="none" fill="none" x="3891" y="15997" width="509" height="779"/>
     <path fill="rgb(128,128,128)" stroke="none" d="M 3891,16775 C 3891,16516 3891,16257 3891,15998 3927,15998 3963,15998 3998,15998 3998,16228 3998,16458 3998,16689 4132,16689 4265,16689 4398,16689 4398,16718 4398,16746 4398,16775 4229,16775 4060,16775 3891,16775 Z"/>
    </g>
   </g>
   <g class="com.sun.star.drawing.ClosedBezierShape">
    <g id="id7">
     <rect class="BoundingBox" stroke="none" fill="none" x="4850" y="16167" width="542" height="621"/>
     <path fill="rgb(128,128,128)" stroke="none" d="M 4957,16497 C 4957,16566 4971,16619 5000,16656 5029,16693 5071,16712 5126,16712 5170,16712 5205,16703 5232,16686 5258,16668 5276,16646 5285,16620 L 5374,16645 C 5338,16739 5255,16786 5126,16786 5037,16786 4968,16760 4921,16707 4874,16655 4851,16576 4851,16473 4851,16374 4874,16298 4921,16246 4968,16193 5035,16167 5122,16167 5301,16167 5391,16273 5391,16484 L 5391,16497 4957,16497 Z M 5286,16421 C 5280,16358 5264,16312 5237,16284 5210,16255 5171,16240 5121,16240 5072,16240 5033,16256 5004,16289 4976,16321 4960,16365 4958,16421 L 5286,16421 Z"/>
    </g>
   </g>
   <g class="com.sun.star.drawing.ClosedBezierShape">
    <g id="id8">
     <rect class="BoundingBox" stroke="none" fill="none" x="5855" y="16168" width="520" height="842"/>
     <path fill="rgb(128,128,128)" stroke="none" d="M 6116,17009 C 6049,17009 5996,16996 5957,16971 5918,16945 5892,16909 5881,16862 L 5983,16847 C 5990,16875 6005,16896 6028,16911 6051,16926 6081,16933 6118,16933 6219,16933 6269,16875 6269,16760 L 6269,16664 6268,16664 C 6249,16702 6223,16731 6190,16750 6156,16769 6117,16779 6073,16779 5998,16779 5944,16755 5908,16706 5873,16658 5856,16581 5856,16477 5856,16372 5875,16294 5912,16243 5950,16193 6007,16168 6084,16168 6127,16168 6165,16178 6196,16197 6228,16216 6252,16244 6269,16280 L 6271,16280 C 6271,16268 6271,16249 6273,16222 6274,16195 6276,16180 6277,16177 L 6373,16177 C 6371,16197 6370,16239 6370,16301 L 6370,16757 C 6370,16925 6285,17009 6116,17009 Z M 6269,16476 C 6269,16427 6263,16386 6249,16350 6236,16315 6217,16288 6192,16270 6168,16251 6140,16242 6109,16242 6057,16242 6019,16260 5996,16297 5972,16334 5960,16394 5960,16476 5960,16558 5972,16616 5994,16652 6016,16688 6054,16706 6107,16706 6139,16706 6167,16696 6192,16678 6217,16660 6236,16633 6249,16599 6263,16564 6269,16523 6269,16476 Z"/>
    </g>
   </g>
   <g class="com.sun.star.drawing.ClosedBezierShape">
    <g id="id9">
     <rect class="BoundingBox" stroke="none" fill="none" x="6861" y="16167" width="593" height="621"/>
     <path fill="rgb(128,128,128)" stroke="none" d="M 7045,16786 C 6984,16786 6938,16770 6908,16739 6877,16707 6861,16664 6861,16608 6861,16547 6882,16499 6924,16466 6965,16433 7032,16415 7124,16413 L 7260,16411 7260,16378 C 7260,16330 7250,16295 7229,16274 7208,16253 7175,16243 7130,16243 7085,16243 7052,16250 7031,16265 7011,16280 6998,16304 6994,16337 L 6888,16328 C 6906,16221 6987,16167 7132,16167 7209,16167 7266,16184 7305,16219 7343,16253 7363,16303 7363,16368 L 7363,16625 C 7363,16655 7367,16677 7374,16692 7382,16707 7397,16714 7419,16714 7429,16714 7440,16713 7453,16710 L 7453,16772 C 7427,16778 7401,16781 7374,16781 7337,16781 7310,16771 7293,16752 7276,16732 7266,16702 7264,16661 L 7260,16661 C 7235,16706 7204,16739 7170,16758 7136,16777 7094,16786 7045,16786 Z M 7068,16712 C 7105,16712 7138,16703 7167,16687 7196,16670 7219,16647 7235,16619 7252,16590 7260,16560 7260,16529 L 7260,16480 7150,16483 C 7102,16483 7066,16488 7042,16497 7017,16506 6998,16519 6985,16538 6972,16556 6965,16580 6965,16610 6965,16642 6974,16667 6992,16685 7010,16703 7035,16712 7068,16712 Z"/>
    </g>
   </g>
   <g class="com.sun.star.drawing.ClosedBezierShape">
    <g id="id10">
     <rect class="BoundingBox" stroke="none" fill="none" x="7896" y="15956" width="103" height="820"/>
     <path fill="rgb(128,128,128)" stroke="none" d="M 7896,16775 C 7896,16502 7896,16229 7896,15956 7930,15956 7963,15956 7997,15956 7997,16229 7997,16502 7997,16775 7963,16775 7930,16775 7896,16775 Z"/>
    </g>
   </g>
   <g class="com.sun.star.drawing.ClosedBezierShape">
    <g id="id11">
     <rect class="BoundingBox" stroke="none" fill="none" x="9166" y="15993" width="711" height="794"/>
     <path fill="rgb(128,128,128)" stroke="none" d="M 9796,16782 C 9730,16782 9674,16758 9629,16712 9601,16735 9569,16754 9533,16767 9497,16780 9459,16786 9420,16786 9340,16786 9277,16767 9233,16729 9189,16691 9167,16638 9167,16570 9167,16468 9231,16389 9359,16334 9347,16311 9336,16284 9327,16253 9318,16221 9314,16193 9314,16167 9314,16112 9331,16069 9365,16039 9400,16008 9448,15993 9511,15993 9568,15993 9613,16007 9648,16035 9683,16063 9700,16101 9700,16150 9700,16193 9683,16232 9648,16266 9614,16300 9555,16333 9470,16366 9512,16442 9567,16517 9635,16594 9677,16533 9709,16457 9731,16367 L 9812,16391 C 9789,16483 9749,16569 9693,16650 9729,16686 9768,16704 9810,16704 9837,16704 9858,16701 9876,16695 L 9876,16770 C 9855,16778 9828,16782 9796,16782 Z M 9614,16150 C 9614,16123 9605,16102 9586,16085 9568,16068 9542,16060 9510,16060 9474,16060 9447,16069 9428,16088 9409,16107 9400,16134 9400,16167 9400,16209 9412,16254 9436,16302 9485,16282 9521,16265 9544,16251 9568,16237 9585,16221 9597,16205 9609,16188 9614,16170 9614,16150 Z M 9573,16655 C 9499,16569 9439,16485 9394,16403 9305,16440 9261,16495 9261,16569 9261,16614 9276,16649 9305,16675 9334,16701 9373,16714 9423,16714 9450,16714 9477,16709 9503,16699 9530,16688 9553,16674 9573,16655 Z"/>
    </g>
   </g>
   <g class="com.sun.star.drawing.ClosedBezierShape">
    <g id="id12">
     <rect class="BoundingBox" stroke="none" fill="none" x="11005" y="15986" width="731" height="801"/>
     <path fill="rgb(128,128,128)" stroke="none" d="M 11393,16072 C 11305,16072 11237,16100 11188,16155 11139,16210 11115,16286 11115,16383 11115,16478 11140,16555 11191,16612 11242,16670 11310,16699 11397,16699 11508,16699 11591,16645 11647,16538 L 11735,16581 C 11702,16648 11656,16699 11597,16734 11538,16769 11470,16786 11392,16786 11312,16786 11243,16770 11185,16737 11127,16705 11082,16658 11052,16598 11021,16537 11006,16465 11006,16383 11006,16259 11040,16162 11108,16091 11176,16021 11271,15986 11391,15986 11476,15986 11546,16002 11603,16035 11659,16067 11701,16115 11727,16179 L 11626,16212 C 11607,16166 11578,16132 11537,16108 11497,16084 11448,16072 11393,16072 Z"/>
    </g>
   </g>
   <g class="com.sun.star.drawing.ClosedBezierShape">
    <g id="id13">
     <rect class="BoundingBox" stroke="none" fill="none" x="12195" y="16167" width="545" height="621"/>
     <path fill="rgb(128,128,128)" stroke="none" d="M 12739,16476 C 12739,16580 12715,16658 12669,16709 12622,16760 12554,16786 12465,16786 12376,16786 12309,16759 12263,16706 12218,16653 12195,16576 12195,16476 12195,16270 12286,16167 12468,16167 12561,16167 12629,16192 12673,16242 12717,16293 12739,16370 12739,16476 Z M 12633,16476 C 12633,16394 12620,16334 12595,16296 12570,16259 12528,16240 12470,16240 12410,16240 12368,16259 12341,16297 12315,16336 12302,16395 12302,16476 12302,16555 12315,16614 12341,16653 12367,16693 12408,16713 12463,16713 12524,16713 12568,16694 12594,16655 12620,16617 12633,16557 12633,16476 Z"/>
    </g>
   </g>
   <g class="com.sun.star.drawing.ClosedBezierShape">
    <g id="id14">
     <rect class="BoundingBox" stroke="none" fill="none" x="13228" y="16166" width="808" height="610"/>
     <path fill="rgb(128,128,128)" stroke="none" d="M 13584,16775 L 13584,16397 C 13584,16339 13576,16299 13559,16277 13543,16255 13514,16244 13472,16244 13429,16244 13395,16260 13370,16292 13345,16325 13332,16370 13332,16429 L 13332,16775 13232,16775 13232,16305 C 13232,16236 13231,16193 13228,16178 L 13324,16178 C 13324,16180 13325,16185 13325,16193 13326,16201 13326,16210 13327,16221 13327,16231 13328,16251 13329,16280 L 13330,16280 C 13352,16238 13377,16208 13405,16192 13433,16175 13467,16167 13508,16167 13554,16167 13590,16176 13617,16194 13644,16212 13662,16241 13673,16280 L 13675,16280 C 13696,16240 13721,16211 13751,16193 13781,16176 13817,16167 13859,16167 13920,16167 13965,16183 13993,16216 14021,16249 14035,16303 14035,16377 L 14035,16775 13935,16775 13935,16397 C 13935,16339 13927,16299 13911,16277 13895,16255 13865,16244 13824,16244 13779,16244 13745,16260 13720,16292 13696,16324 13684,16370 13684,16429 L 13684,16775 13584,16775 Z"/>
    </g>
   </g>
   <g class="com.sun.star.drawing.ClosedBezierShape">
    <g id="id15">
     <rect class="BoundingBox" stroke="none" fill="none" x="14553" y="16166" width="808" height="610"/>
     <path fill="rgb(128,128,128)" stroke="none" d="M 14909,16775 L 14909,16397 C 14909,16339 14901,16299 14884,16277 14868,16255 14839,16244 14797,16244 14754,16244 14720,16260 14695,16292 14670,16325 14657,16370 14657,16429 L 14657,16775 14557,16775 14557,16305 C 14557,16236 14556,16193 14553,16178 L 14649,16178 C 14649,16180 14650,16185 14650,16193 14650,16201 14651,16210 14652,16221 14652,16231 14653,16251 14653,16280 L 14655,16280 C 14677,16238 14702,16208 14730,16192 14758,16175 14792,16167 14833,16167 14879,16167 14915,16176 14942,16194 14969,16212 14987,16241 14998,16280 L 15000,16280 C 15021,16240 15046,16211 15076,16193 15106,16176 15142,16167 15184,16167 15245,16167 15290,16183 15318,16216 15346,16249 15360,16303 15360,16377 L 15360,16775 15260,16775 15260,16397 C 15260,16339 15252,16299 15236,16277 15219,16255 15190,16244 15148,16244 15104,16244 15070,16260 15045,16292 15021,16324 15009,16370 15009,16429 L 15009,16775 14909,16775 Z"/>
    </g>
   </g>
   <g class="com.sun.star.drawing.ClosedBezierShape">
    <g id="id16">
     <rect class="BoundingBox" stroke="none" fill="none" x="15850" y="16167" width="542" height="621"/>
     <path fill="rgb(128,128,128)" stroke="none" d="M 15957,16497 C 15957,16566 15972,16619 16000,16656 16029,16693 16071,16712 16127,16712 16171,16712 16206,16703 16232,16686 16259,16668 16276,16646 16286,16620 L 16375,16645 C 16338,16739 16256,16786 16127,16786 16037,16786 15968,16760 15921,16707 15874,16655 15851,16576 15851,16473 15851,16374 15874,16298 15921,16246 15968,16193 16036,16167 16123,16167 16302,16167 16391,16273 16391,16484 L 16391,16497 15957,16497 Z M 16286,16421 C 16281,16358 16264,16312 16237,16284 16211,16255 16172,16240 16121,16240 16072,16240 16033,16256 16005,16289 15976,16321 15960,16365 15958,16421 L 16286,16421 Z"/>
    </g>
   </g>
   <g class="com.sun.star.drawing.ClosedBezierShape">
    <g id="id17">
     <rect class="BoundingBox" stroke="none" fill="none" x="16884" y="16166" width="290" height="610"/>
     <path fill="rgb(128,128,128)" stroke="none" d="M 16888,16775 L 16888,16317 C 16888,16275 16887,16229 16884,16178 L 16980,16178 C 16983,16246 16984,16286 16984,16300 L 16987,16300 C 17003,16249 17021,16214 17042,16195 17063,16176 17093,16167 17131,16167 17145,16167 17158,16169 17172,16173 L 17172,16264 C 17159,16260 17141,16258 17118,16258 17076,16258 17044,16276 17022,16311 17000,16347 16989,16398 16989,16464 L 16989,16775 16888,16775 Z"/>
    </g>
   </g>
   <g class="com.sun.star.drawing.ClosedBezierShape">
    <g id="id18">
     <rect class="BoundingBox" stroke="none" fill="none" x="17607" y="16167" width="498" height="621"/>
     <path fill="rgb(128,128,128)" stroke="none" d="M 17713,16474 C 17713,16553 17725,16612 17751,16650 17776,16689 17815,16708 17866,16708 17902,16708 17932,16698 17956,16679 17980,16660 17995,16630 18001,16591 L 18103,16597 C 18095,16655 18070,16700 18028,16735 17986,16769 17933,16786 17869,16786 17784,16786 17719,16760 17674,16707 17629,16654 17607,16577 17607,16476 17607,16376 17629,16299 17674,16246 17719,16193 17784,16167 17868,16167 17930,16167 17982,16183 18023,16214 18064,16246 18089,16290 18100,16345 L 17996,16353 C 17991,16320 17977,16294 17956,16274 17935,16255 17904,16245 17865,16245 17811,16245 17773,16262 17749,16297 17725,16332 17713,16391 17713,16474 Z"/>
    </g>
   </g>
   <g class="com.sun.star.drawing.ClosedBezierShape">
    <g id="id19">
     <rect class="BoundingBox" stroke="none" fill="none" x="18580" y="15956" width="104" height="820"/>
     <path fill="rgb(128,128,128)" stroke="none" d="M 18581,16051 C 18581,16019 18581,15988 18581,15956 18615,15956 18648,15956 18682,15956 18682,15988 18682,16019 18682,16051 18648,16051 18615,16051 18581,16051 Z M 18581,16775 C 18581,16576 18581,16377 18581,16178 18615,16178 18648,16178 18682,16178 18682,16377 18682,16576 18682,16775 18648,16775 18615,16775 18581,16775 Z"/>
    </g>
   </g>
   <g class="com.sun.star.drawing.ClosedBezierShape">
    <g id="id20">
     <rect class="BoundingBox" stroke="none" fill="none" x="19173" y="16167" width="593" height="621"/>
     <path fill="rgb(128,128,128)" stroke="none" d="M 19357,16786 C 19296,16786 19250,16770 19220,16739 19189,16707 19174,16664 19174,16608 19174,16547 19194,16499 19236,16466 19277,16433 19344,16415 19436,16413 L 19572,16411 19572,16378 C 19572,16330 19562,16295 19541,16274 19520,16253 19487,16243 19442,16243 19397,16243 19364,16250 19343,16265 19323,16280 19310,16304 19306,16337 L 19201,16328 C 19218,16221 19299,16167 19444,16167 19521,16167 19578,16184 19617,16219 19655,16253 19675,16303 19675,16368 L 19675,16625 C 19675,16655 19679,16677 19687,16692 19694,16707 19709,16714 19731,16714 19741,16714 19752,16713 19765,16710 L 19765,16772 C 19739,16778 19713,16781 19687,16781 19649,16781 19622,16771 19605,16752 19588,16732 19578,16702 19576,16661 L 19572,16661 C 19547,16706 19517,16739 19482,16758 19448,16777 19406,16786 19357,16786 Z M 19380,16712 C 19417,16712 19450,16703 19479,16687 19508,16670 19531,16647 19547,16619 19564,16590 19572,16560 19572,16529 L 19572,16480 19462,16483 C 19414,16483 19378,16488 19354,16497 19329,16506 19310,16519 19297,16538 19284,16556 19278,16580 19278,16610 19278,16642 19286,16667 19304,16685 19322,16703 19347,16712 19380,16712 Z"/>
    </g>
   </g>
   <g class="com.sun.star.drawing.ClosedBezierShape">
    <g id="id21">
     <rect class="BoundingBox" stroke="none" fill="none" x="20208" y="15956" width="103" height="820"/>
     <path fill="rgb(128,128,128)" stroke="none" d="M 20208,16775 C 20208,16502 20208,16229 20208,15956 20242,15956 20276,15956 20309,15956 20309,16229 20309,16502 20309,16775 20276,16775 20242,16775 20208,16775 Z"/>
    </g>
   </g>
  </g>
 </g>
</svg>