<?xml version="1.0" encoding="UTF-8"?>
<!DOCTYPE svg PUBLIC "-//W3C//DTD SVG 1.1//EN" "http://www.w3.org/Graphics/SVG/1.1/DTD/svg11.dtd">
<svg version="1.2" width="210mm" height="297mm" viewBox="0 0 21000 29700" preserveAspectRatio="xMidYMid" fill-rule="evenodd" stroke-width="28.222" stroke-linejoin="round" xmlns="http://www.w3.org/2000/svg" xmlns:ooo="http://xml.openoffice.org/svg/export" xmlns:xlink="http://www.w3.org/1999/xlink" xmlns:presentation="http://sun.com/xmlns/staroffice/presentation" xmlns:smil="http://www.w3.org/2001/SMIL20/" xmlns:anim="urn:oasis:names:tc:opendocument:xmlns:animation:1.0" xml:space="preserve">
 <defs class="ClipPathGroup">
  <clipPath id="presentation_clip_path" clipPathUnits="userSpaceOnUse">
   <rect x="0" y="0" width="21000" height="29700"/>
  </clipPath>
  <clipPath id="presentation_clip_path_shrink" clipPathUnits="userSpaceOnUse">
   <rect x="21" y="29" width="20958" height="29641"/>
  </clipPath>
 </defs>
 <defs class="TextShapeIndex">
  <g ooo:slide="id1" ooo:id-list="id3 id4 id5 id6 id7 id8 id9 id10 id11 id12 id13 id14 id15 id16 id17 id18 id19 id20 id21"/>
 </defs>
 <defs class="EmbeddedBulletChars">
  <g id="bullet-char-template-57356" transform="scale(0.00048828125,-0.00048828125)">
   <path d="M 580,1141 L 1163,571 580,0 -4,571 580,1141 Z"/>
  </g>
  <g id="bullet-char-template-57354" transform="scale(0.00048828125,-0.00048828125)">
   <path d="M 8,1128 L 1137,1128 1137,0 8,0 8,1128 Z"/>
  </g>
  <g id="bullet-char-template-10146" transform="scale(0.00048828125,-0.00048828125)">
   <path d="M 174,0 L 602,739 174,1481 1456,739 174,0 Z M 1358,739 L 309,1346 659,739 1358,739 Z"/>
  </g>
  <g id="bullet-char-template-10132" transform="scale(0.00048828125,-0.00048828125)">
   <path d="M 2015,739 L 1276,0 717,0 1260,543 174,543 174,936 1260,936 717,1481 1274,1481 2015,739 Z"/>
  </g>
  <g id="bullet-char-template-10007" transform="scale(0.00048828125,-0.00048828125)">
   <path d="M 0,-2 C -7,14 -16,27 -25,37 L 356,567 C 262,823 215,952 215,954 215,979 228,992 255,992 264,992 276,990 289,987 310,991 331,999 354,1012 L 381,999 492,748 772,1049 836,1024 860,1049 C 881,1039 901,1025 922,1006 886,937 835,863 770,784 769,783 710,716 594,584 L 774,223 C 774,196 753,168 711,139 L 727,119 C 717,90 699,76 672,76 641,76 570,178 457,381 L 164,-76 C 142,-110 111,-127 72,-127 30,-127 9,-110 8,-76 1,-67 -2,-52 -2,-32 -2,-23 -1,-13 0,-2 Z"/>
  </g>
  <g id="bullet-char-template-10004" transform="scale(0.00048828125,-0.00048828125)">
   <path d="M 285,-33 C 182,-33 111,30 74,156 52,228 41,333 41,471 41,549 55,616 82,672 116,743 169,778 240,778 293,778 328,747 346,684 L 369,508 C 377,444 397,411 428,410 L 1163,1116 C 1174,1127 1196,1133 1229,1133 1271,1133 1292,1118 1292,1087 L 1292,965 C 1292,929 1282,901 1262,881 L 442,47 C 390,-6 338,-33 285,-33 Z"/>
  </g>
  <g id="bullet-char-template-9679" transform="scale(0.00048828125,-0.00048828125)">
   <path d="M 813,0 C 632,0 489,54 383,161 276,268 223,411 223,592 223,773 276,916 383,1023 489,1130 632,1184 813,1184 992,1184 1136,1130 1245,1023 1353,916 1407,772 1407,592 1407,412 1353,268 1245,161 1136,54 992,0 813,0 Z"/>
  </g>
  <g id="bullet-char-template-8226" transform="scale(0.00048828125,-0.00048828125)">
   <path d="M 346,457 C 273,457 209,483 155,535 101,586 74,649 74,723 74,796 101,859 155,911 209,963 273,989 346,989 419,989 480,963 531,910 582,859 608,796 608,723 608,648 583,586 532,535 482,483 420,457 346,457 Z"/>
  </g>
  <g id="bullet-char-template-8211" transform="scale(0.00048828125,-0.00048828125)">
   <path d="M -4,459 L 1135,459 1135,606 -4,606 -4,459 Z"/>
  </g>
  <g id="bullet-char-template-61548" transform="scale(0.00048828125,-0.00048828125)">
   <path d="M 173,740 C 173,903 231,1043 346,1159 462,1274 601,1332 765,1332 928,1332 1067,1274 1183,1159 1299,1043 1357,903 1357,740 1357,577 1299,437 1183,322 1067,206 928,148 765,148 601,148 462,206 346,322 231,437 173,577 173,740 Z"/>
  </g>
 </defs>
 <g>
  <g id="id2" class="Master_Slide">
   <g id="bg-id2" class="Background"/>
   <g id="bo-id2" class="BackgroundObjects"/>
  </g>
 </g>
 <g class="SlideGroup">
  <g>
   <g id="container-id1">
    <g id="id1" class="Slide" clip-path="url(#presentation_clip_path)">
     <g class="Page">
      <g class="com.sun.star.drawing.PolyPolygonShape">
       <g id="id3">
        <rect class="BoundingBox" stroke="none" fill="none" x="1000" y="1000" width="19310" height="14467"/>
        <path fill="rgb(128,128,128)" stroke="none" d="M 1000,1000 L 12707,1000 20309,15466 17254,15466 16136,13528 12447,13528 12447,15423 1000,15466 1000,1000 Z M 4411,6577 L 4398,4472 9056,4472 9056,6559 4411,6577 Z M 4398,11925 L 4411,9923 9056,9950 9056,11925 4398,11925 Z M 12447,9950 L 12447,6559 14347,9950 12447,9950 Z"/>
       </g>
      </g>
      <g class="Group">
       <g class="com.sun.star.drawing.ClosedBezierShape">
        <g id="id4">
         <rect class="BoundingBox" stroke="none" fill="none" x="999" y="16797" width="626" height="780"/>
         <path fill="rgb(128,128,128)" stroke="none" d="M 1000,17575 C 1000,17316 1000,17057 1000,16798 1200,16798 1400,16798 1600,16798 1600,16827 1600,16855 1600,16884 1436,16884 1271,16884 1107,16884 1107,16967 1107,17050 1107,17133 1260,17133 1413,17133 1567,17133 1567,17161 1567,17190 1567,17218 1413,17218 1260,17218 1107,17218 1107,17308 1107,17399 1107,17489 1279,17489 1451,17489 1623,17489 1623,17518 1623,17546 1623,17575 1415,17575 1207,17575 1000,17575 Z"/>
        </g>
       </g>
       <g class="com.sun.star.drawing.ClosedBezierShape">
        <g id="id5">
         <rect class="BoundingBox" stroke="none" fill="none" x="2042" y="16798" width="765" height="779"/>
         <path fill="rgb(128,128,128)" stroke="none" d="M 2696,17576 L 2606,17348 2245,17348 2154,17576 2043,17576 2366,16798 2488,16798 2806,17576 2696,17576 Z M 2425,16877 L 2420,16893 C 2411,16923 2397,16963 2379,17010 L 2278,17266 2574,17266 2472,17009 C 2462,16984 2451,16955 2441,16923 L 2425,16877 Z"/>
        </g>
       </g>
       <g class="com.sun.star.drawing.ClosedBezierShape">
        <g id="id6">
         <rect class="BoundingBox" stroke="none" fill="none" x="3891" y="16797" width="509" height="779"/>
         <path fill="rgb(128,128,128)" stroke="none" d="M 3891,17575 C 3891,17316 3891,17057 3891,16798 3927,16798 3963,16798 3998,16798 3998,17028 3998,17258 3998,17489 4132,17489 4265,17489 4398,17489 4398,17518 4398,17546 4398,17575 4229,17575 4060,17575 3891,17575 Z"/>
        </g>
       </g>
       <g class="com.sun.star.drawing.ClosedBezierShape">
        <g id="id7">
         <rect class="BoundingBox" stroke="none" fill="none" x="4850" y="16967" width="542" height="621"/>
         <path fill="rgb(128,128,128)" stroke="none" d="M 4957,17297 C 4957,17366 4971,17419 5000,17456 5029,17493 5071,17512 5126,17512 5170,17512 5205,17503 5232,17486 5258,17468 5276,17446 5285,17420 L 5374,17445 C 5338,17539 5255,17586 5126,17586 5037,17586 4968,17560 4921,17507 4874,17455 4851,17376 4851,17273 4851,17174 4874,17098 4921,17046 4968,16993 5035,16967 5122,16967 5301,16967 5391,17073 5391,17284 L 5391,17297 4957,17297 Z M 5286,17221 C 5280,17158 5264,17112 5237,17084 5210,17055 5171,17040 5121,17040 5072,17040 5033,17056 5004,17089 4976,17121 4960,17165 4958,17221 L 5286,17221 Z"/>
        </g>
       </g>
       <g class="com.sun.star.drawing.ClosedBezierShape">
        <g id="id8">
         <rect class="BoundingBox" stroke="none" fill="none" x="5855" y="16968" width="520" height="842"/>
         <path fill="rgb(128,128,128)" stroke="none" d="M 6116,17809 C 6049,17809 5996,17796 5957,17771 5918,17745 5892,17709 5881,17662 L 5983,17647 C 5990,17675 6005,17696 6028,17711 6051,17726 6081,17733 6118,17733 6219,17733 6269,17675 6269,17560 L 6269,17464 6268,17464 C 6249,17502 6223,17531 6190,17550 6156,17569 6117,17579 6073,17579 5998,17579 5944,17555 5908,17506 5873,17458 5856,17381 5856,17277 5856,17172 5875,17094 5912,17043 5950,16993 6007,16968 6084,16968 6127,16968 6165,16978 6196,16997 6228,17016 6252,17044 6269,17080 L 6271,17080 C 6271,17068 6271,17049 6273,17022 6274,16995 6276,16980 6277,16977 L 6373,16977 C 6371,16997 6370,17039 6370,17101 L 6370,17557 C 6370,17725 6285,17809 6116,17809 Z M 6269,17276 C 6269,17227 6263,17186 6249,17150 6236,17115 6217,17088 6192,17070 6168,17051 6140,17042 6109,17042 6057,17042 6019,17060 5996,17097 5972,17134 5960,17194 5960,17276 5960,17358 5972,17416 5994,17452 6016,17488 6054,17506 6107,17506 6139,17506 6167,17496 6192,17478 6217,17460 6236,17433 6249,17399 6263,17364 6269,17323 6269,17276 Z"/>
        </g>
       </g>
       <g class="com.sun.star.drawing.ClosedBezierShape">
        <g id="id9">
         <rect class="BoundingBox" stroke="none" fill="none" x="6861" y="16967" width="593" height="621"/>
         <path fill="rgb(128,128,128)" stroke="none" d="M 7045,17586 C 6984,17586 6938,17570 6908,17539 6877,17507 6861,17464 6861,17408 6861,17347 6882,17299 6924,17266 6965,17233 7032,17215 7124,17213 L 7260,17211 7260,17178 C 7260,17130 7250,17095 7229,17074 7208,17053 7175,17043 7130,17043 7085,17043 7052,17050 7031,17065 7011,17080 6998,17104 6994,17137 L 6888,17128 C 6906,17021 6987,16967 7132,16967 7209,16967 7266,16984 7305,17019 7343,17053 7363,17103 7363,17168 L 7363,17425 C 7363,17455 7367,17477 7374,17492 7382,17507 7397,17514 7419,17514 7429,17514 7440,17513 7453,17510 L 7453,17572 C 7427,17578 7401,17581 7374,17581 7337,17581 7310,17571 7293,17552 7276,17532 7266,17502 7264,17461 L 7260,17461 C 7235,17506 7204,17539 7170,17558 7136,17577 7094,17586 7045,17586 Z M 7068,17512 C 7105,17512 7138,17503 7167,17487 7196,17470 7219,17447 7235,17419 7252,17390 7260,17360 7260,17329 L 7260,17280 7150,17283 C 7102,17283 7066,17288 7042,17297 7017,17306 6998,17319 6985,17338 6972,17356 6965,17380 6965,17410 6965,17442 6974,17467 6992,17485 7010,17503 7035,17512 7068,17512 Z"/>
        </g>
       </g>
       <g class="com.sun.star.drawing.ClosedBezierShape">
        <g id="id10">
         <rect class="BoundingBox" stroke="none" fill="none" x="7896" y="16756" width="103" height="820"/>
         <path fill="rgb(128,128,128)" stroke="none" d="M 7896,17575 C 7896,17302 7896,17029 7896,16756 7930,16756 7963,16756 7997,16756 7997,17029 7997,17302 7997,17575 7963,17575 7930,17575 7896,17575 Z"/>
        </g>
       </g>
       <g class="com.sun.star.drawing.ClosedBezierShape">
        <g id="id11">
         <rect class="BoundingBox" stroke="none" fill="none" x="9166" y="16793" width="711" height="794"/>
         <path fill="rgb(128,128,128)" stroke="none" d="M 9796,17582 C 9730,17582 9674,17558 9629,17512 9601,17535 9569,17554 9533,17567 9497,17580 9459,17586 9420,17586 9340,17586 9277,17567 9233,17529 9189,17491 9167,17438 9167,17370 9167,17268 9231,17189 9359,17134 9347,17111 9336,17084 9327,17053 9318,17021 9314,16993 9314,16967 9314,16912 9331,16869 9365,16839 9400,16808 9448,16793 9511,16793 9568,16793 9613,16807 9648,16835 9683,16863 9700,16901 9700,16950 9700,16993 9683,17032 9648,17066 9614,17100 9555,17133 9470,17166 9512,17242 9567,17317 9635,17394 9677,17333 9709,17257 9731,17167 L 9812,17191 C 9789,17283 9749,17369 9693,17450 9729,17486 9768,17504 9810,17504 9837,17504 9858,17501 9876,17495 L 9876,17570 C 9855,17578 9828,17582 9796,17582 Z M 9614,16950 C 9614,16923 9605,16902 9586,16885 9568,16868 9542,16860 9510,16860 9474,16860 9447,16869 9428,16888 9409,16907 9400,16934 9400,16967 9400,17009 9412,17054 9436,17102 9485,17082 9521,17065 9544,17051 9568,17037 9585,17021 9597,17005 9609,16988 9614,16970 9614,16950 Z M 9573,17455 C 9499,17369 9439,17285 9394,17203 9305,17240 9261,17295 9261,17369 9261,17414 9276,17449 9305,17475 9334,17501 9373,17514 9423,17514 9450,17514 9477,17509 9503,17499 9530,17488 9553,17474 9573,17455 Z"/>
        </g>
       </g>
       <g class="com.sun.star.drawing.ClosedBezierShape">
        <g id="id12">
         <rect class="BoundingBox" stroke="none" fill="none" x="11005" y="16786" width="731" height="801"/>
         <path fill="rgb(128,128,128)" stroke="none" d="M 11393,16872 C 11305,16872 11237,16900 11188,16955 11139,17010 11115,17086 11115,17183 11115,17278 11140,17355 11191,17412 11242,17470 11310,17499 11397,17499 11508,17499 11591,17445 11647,17338 L 11735,17381 C 11702,17448 11656,17499 11597,17534 11538,17569 11470,17586 11392,17586 11312,17586 11243,17570 11185,17537 11127,17505 11082,17458 11052,17398 11021,17337 11006,17265 11006,17183 11006,17059 11040,16962 11108,16891 11176,16821 11271,16786 11391,16786 11476,16786 11546,16802 11603,16835 11659,16867 11701,16915 11727,16979 L 11626,17012 C 11607,16966 11578,16932 11537,16908 11497,16884 11448,16872 11393,16872 Z"/>
        </g>
       </g>
       <g class="com.sun.star.drawing.ClosedBezierShape">
        <g id="id13">
         <rect class="BoundingBox" stroke="none" fill="none" x="12195" y="16967" width="545" height="621"/>
         <path fill="rgb(128,128,128)" stroke="none" d="M 12739,17276 C 12739,17380 12715,17458 12669,17509 12622,17560 12554,17586 12465,17586 12376,17586 12309,17559 12263,17506 12218,17453 12195,17376 12195,17276 12195,17070 12286,16967 12468,16967 12561,16967 12629,16992 12673,17042 12717,17093 12739,17170 12739,17276 Z M 12633,17276 C 12633,17194 12620,17134 12595,17096 12570,17059 12528,17040 12470,17040 12410,17040 12368,17059 12341,17097 12315,17136 12302,17195 12302,17276 12302,17355 12315,17414 12341,17453 12367,17493 12408,17513 12463,17513 12524,17513 12568,17494 12594,17455 12620,17417 12633,17357 12633,17276 Z"/>
        </g>
       </g>
       <g class="com.sun.star.drawing.ClosedBezierShape">
        <g id="id14">
         <rect class="BoundingBox" stroke="none" fill="none" x="13228" y="16966" width="808" height="610"/>
         <path fill="rgb(128,128,128)" stroke="none" d="M 13584,17575 L 13584,17197 C 13584,17139 13576,17099 13559,17077 13543,17055 13514,17044 13472,17044 13429,17044 13395,17060 13370,17092 13345,17125 13332,17170 13332,17229 L 13332,17575 13232,17575 13232,17105 C 13232,17036 13231,16993 13228,16978 L 13324,16978 C 13324,16980 13325,16985 13325,16993 13326,17001 13326,17010 13327,17021 13327,17031 13328,17051 13329,17080 L 13330,17080 C 13352,17038 13377,17008 13405,16992 13433,16975 13467,16967 13508,16967 13554,16967 13590,16976 13617,16994 13644,17012 13662,17041 13673,17080 L 13675,17080 C 13696,17040 13721,17011 13751,16993 13781,16976 13817,16967 13859,16967 13920,16967 13965,16983 13993,17016 14021,17049 14035,17103 14035,17177 L 14035,17575 13935,17575 13935,17197 C 13935,17139 13927,17099 13911,17077 13895,17055 13865,17044 13824,17044 13779,17044 13745,17060 13720,17092 13696,17124 13684,17170 13684,17229 L 13684,17575 13584,17575 Z"/>
        </g>
       </g>
       <g class="com.sun.star.drawing.ClosedBezierShape">
        <g id="id15">
         <rect class="BoundingBox" stroke="none" fill="none" x="14553" y="16966" width="808" height="610"/>
         <path fill="rgb(128,128,128)" stroke="none" d="M 14909,17575 L 14909,17197 C 14909,17139 14901,17099 14884,17077 14868,17055 14839,17044 14797,17044 14754,17044 14720,17060 14695,17092 14670,17125 14657,17170 14657,17229 L 14657,17575 14557,17575 14557,17105 C 14557,17036 14556,16993 14553,16978 L 14649,16978 C 14649,16980 14650,16985 14650,16993 14650,17001 14651,17010 14652,17021 14652,17031 14653,17051 14653,17080 L 14655,17080 C 14677,17038 14702,17008 14730,16992 14758,16975 14792,16967 14833,16967 14879,16967 14915,16976 14942,16994 14969,17012 14987,17041 14998,17080 L 15000,17080 C 15021,17040 15046,17011 15076,16993 15106,16976 15142,16967 15184,16967 15245,16967 15290,16983 15318,17016 15346,17049 15360,17103 15360,17177 L 15360,17575 15260,17575 15260,17197 C 15260,17139 15252,17099 15236,17077 15219,17055 15190,17044 15148,17044 15104,17044 15070,17060 15045,17092 15021,17124 15009,17170 15009,17229 L 15009,17575 14909,17575 Z"/>
        </g>
       </g>
       <g class="com.sun.star.drawing.ClosedBezierShape">
        <g id="id16">
         <rect class="BoundingBox" stroke="none" fill="none" x="15850" y="16967" width="542" height="621"/>
         <path fill="rgb(128,128,128)" stroke="none" d="M 15957,17297 C 15957,17366 15972,17419 16000,17456 16029,17493 16071,17512 16127,17512 16171,17512 16206,17503 16232,17486 16259,17468 16276,17446 16286,17420 L 16375,17445 C 16338,17539 16256,17586 16127,17586 16037,17586 15968,17560 15921,17507 15874,17455 15851,17376 15851,17273 15851,17174 15874,17098 15921,17046 15968,16993 16036,16967 16123,16967 16302,16967 16391,17073 16391,17284 L 16391,17297 15957,17297 Z M 16286,17221 C 16281,17158 16264,17112 16237,17084 16211,17055 16172,17040 16121,17040 16072,17040 16033,17056 16005,17089 15976,17121 15960,17165 15958,17221 L 16286,17221 Z"/>
        </g>
       </g>
       <g class="com.sun.star.drawing.ClosedBezierShape">
        <g id="id17">
         <rect class="BoundingBox" stroke="none" fill="none" x="16884" y="16966" width="290" height="610"/>
         <path fill="rgb(128,128,128)" stroke="none" d="M 16888,17575 L 16888,17117 C 16888,17075 16887,17029 16884,16978 L 16980,16978 C 16983,17046 16984,17086 16984,17100 L 16987,17100 C 17003,17049 17021,17014 17042,16995 17063,16976 17093,16967 17131,16967 17145,16967 17158,16969 17172,16973 L 17172,17064 C 17159,17060 17141,17058 17118,17058 17076,17058 17044,17076 17022,17111 17000,17147 16989,17198 16989,17264 L 16989,17575 16888,17575 Z"/>
        </g>
       </g>
       <g class="com.sun.star.drawing.ClosedBezierShape">
        <g id="id18">
         <rect class="BoundingBox" stroke="none" fill="none" x="17607" y="16967" width="498" height="621"/>
         <path fill="rgb(128,128,128)" stroke="none" d="M 17713,17274 C 17713,17353 17725,17412 17751,17450 17776,17489 17815,17508 17866,17508 17902,17508 17932,17498 17956,17479 17980,17460 17995,17430 18001,17391 L 18103,17397 C 18095,17455 18070,17500 18028,17535 17986,17569 17933,17586 17869,17586 17784,17586 17719,17560 17674,17507 17629,17454 17607,17377 17607,17276 17607,17176 17629,17099 17674,17046 17719,16993 17784,16967 17868,16967 17930,16967 17982,16983 18023,17014 18064,17046 18089,17090 18100,17145 L 17996,17153 C 17991,17120 17977,17094 17956,17074 17935,17055 17904,17045 17865,17045 17811,17045 17773,17062 17749,17097 17725,17132 17713,17191 17713,17274 Z"/>
        </g>
       </g>
       <g class="com.sun.star.drawing.ClosedBezierShape">
        <g id="id19">
         <rect class="BoundingBox" stroke="none" fill="none" x="18580" y="16756" width="104" height="820"/>
         <path fill="rgb(128,128,128)" stroke="none" d="M 18581,16851 C 18581,16819 18581,16788 18581,16756 18615,16756 18648,16756 18682,16756 18682,16788 18682,16819 18682,16851 18648,16851 18615,16851 18581,16851 Z M 18581,17575 C 18581,17376 18581,17177 18581,16978 18615,16978 18648,16978 18682,16978 18682,17177 18682,17376 18682,17575 18648,17575 18615,17575 18581,17575 Z"/>
        </g>
       </g>
       <g class="com.sun.star.drawing.ClosedBezierShape">
        <g id="id20">
         <rect class="BoundingBox" stroke="none" fill="none" x="19173" y="16967" width="593" height="621"/>
         <path fill="rgb(128,128,128)" stroke="none" d="M 19357,17586 C 19296,17586 19250,17570 19220,17539 19189,17507 19174,17464 19174,17408 19174,17347 19194,17299 19236,17266 19277,17233 19344,17215 19436,17213 L 19572,17211 19572,17178 C 19572,17130 19562,17095 19541,17074 19520,17053 19487,17043 19442,17043 19397,17043 19364,17050 19343,17065 19323,17080 19310,17104 19306,17137 L 19201,17128 C 19218,17021 19299,16967 19444,16967 19521,16967 19578,16984 19617,17019 19655,17053 19675,17103 19675,17168 L 19675,17425 C 19675,17455 19679,17477 19687,17492 19694,17507 19709,17514 19731,17514 19741,17514 19752,17513 19765,17510 L 19765,17572 C 19739,17578 19713,17581 19687,17581 19649,17581 19622,17571 19605,17552 19588,17532 19578,17502 19576,17461 L 19572,17461 C 19547,17506 19517,17539 19482,17558 19448,17577 19406,17586 19357,17586 Z M 19380,17512 C 19417,17512 19450,17503 19479,17487 19508,17470 19531,17447 19547,17419 19564,17390 19572,17360 19572,17329 L 19572,17280 19462,17283 C 19414,17283 19378,17288 19354,17297 19329,17306 19310,17319 19297,17338 19284,17356 19278,17380 19278,17410 19278,17442 19286,17467 19304,17485 19322,17503 19347,17512 19380,17512 Z"/>
        </g>
       </g>
       <g class="com.sun.star.drawing.ClosedBezierShape">
        <g id="id21">
         <rect class="BoundingBox" stroke="none" fill="none" x="20208" y="16756" width="103" height="820"/>
         <path fill="rgb(128,128,128)" stroke="none" d="M 20208,17575 C 20208,17302 20208,17029 20208,16756 20242,16756 20276,16756 20309,16756 20309,17029 20309,17302 20309,17575 20276,17575 20242,17575 20208,17575 Z"/>
        </g>
       </g>
      </g>
     </g>
    </g>
   </g>
  </g>
 </g>
</svg>